<svg width="432" height="191" viewBox="0 0 432 191" fill="none" xmlns="http://www.w3.org/2000/svg">
<g clip-path="url(#clip0_93_5567)">
<g filter="url(#filter0_d_93_5567)">
<path d="M136.495 110.869L154.025 141.071C188.896 158.985 220.703 157.537 249.446 136.727L243.058 125.884C253.594 127.151 262.982 122.357 271.22 111.503C273.854 108.618 276.563 105.802 279.349 103.056C257.852 78.4196 271.262 58.0889 319.579 42.0632L426.02 6.43623C374.79 0.0360299 322.293 4.17229 268.53 18.845C248.963 23.8108 233.925 35.5563 223.416 54.0815L221.316 36.7125C208.165 41.9683 194.972 47.881 181.736 54.4506C158.255 66.1439 143.174 84.9499 136.495 110.869Z" fill="white"/>
<path d="M80.3111 161.891L75.4876 147.047L53.4544 147.395L22.2636 181.561L69.9641 179.171L80.3111 161.891Z" fill="#FFCC00"/>
<path fill-rule="evenodd" clip-rule="evenodd" d="M426.02 6.43623L319.579 42.0632C271.262 58.0889 257.852 78.4196 279.349 103.056C320.666 61.1519 369.557 28.9453 426.02 6.43623Z" fill="#CBCBCB"/>
<path d="M80.3111 161.891L154.025 141.071L136.495 110.869L105.991 128.958L75.4876 147.047L80.3111 161.891Z" fill="#383838"/>
<path d="M80.3111 161.891L154.025 141.071C188.896 158.985 220.703 157.537 249.446 136.727L243.058 125.884C253.594 127.151 262.982 122.357 271.22 111.503C273.854 108.618 276.563 105.802 279.349 103.056C320.666 61.1519 369.557 28.9453 426.02 6.43623C374.79 0.0360325 322.293 4.1723 268.53 18.845C248.963 23.8108 233.925 35.5563 223.416 54.0815L221.316 36.7125C208.165 41.9683 194.972 47.881 181.736 54.4506C158.255 66.1439 143.174 84.9499 136.495 110.869L105.991 128.958L75.4876 147.047L53.4544 147.395L22.2636 181.561L69.9641 179.171L80.3111 161.891Z" stroke="black" stroke-width="5" stroke-linejoin="round"/>
<g filter="url(#filter1_d_93_5567)">
<path d="M97.0713 111.16C97.7646 111.16 98.2979 111.48 98.6713 112.12C99.0979 112.76 99.3113 113.64 99.3113 114.76C99.3113 116.84 98.8046 118.493 97.7913 119.72C95.2313 122.813 92.6446 125.213 90.0313 126.92C87.4179 128.573 84.3246 129.4 80.7513 129.4C76.8046 129.4 73.5779 128.253 71.0713 125.96C68.5646 123.613 66.2179 119.987 64.0312 115.08C62.4313 111.56 61.0979 108.947 60.0313 107.24C59.0179 105.48 58.0046 104.253 56.9913 103.56C55.9779 102.813 54.6979 102.36 53.1513 102.2L52.2713 108.12C51.1513 115.747 48.9646 121.24 45.7113 124.6C42.5113 127.96 38.0846 129.64 32.4313 129.64C28.7513 129.64 25.4713 128.76 22.5913 127C19.7646 125.187 17.7913 122.893 16.6712 120.12C16.2979 119.16 16.1113 118.12 16.1113 117C16.1113 115.4 16.4846 114.013 17.2313 112.84C17.9779 111.667 18.9379 111.08 20.1113 111.08C20.8046 111.08 21.3913 111.267 21.8713 111.64C22.3513 111.96 22.8046 112.547 23.2313 113.4C24.8846 116.493 26.3246 118.653 27.5513 119.88C28.8313 121.107 30.4046 121.72 32.2713 121.72C34.4046 121.72 36.2179 120.76 37.7113 118.84C39.2579 116.867 40.3513 113.853 40.9913 109.8L42.1113 102.2H40.8313C39.6046 102.2 38.6446 101.853 37.9513 101.16C37.2579 100.467 36.9113 99.5067 36.9113 98.28C36.9113 96.8933 37.2579 95.8 37.9513 95C38.6979 94.1467 39.6046 93.72 40.6713 93.72H43.3113C43.6846 91.1067 43.9513 89.2933 44.1113 88.28L46.5913 70.28C45.2046 70.12 43.8979 70.04 42.6713 70.04C38.1379 70.04 34.6979 70.84 32.3513 72.44C30.0046 73.9867 28.8313 76.2267 28.8313 79.16C28.8313 80.4933 28.9646 81.5867 29.2313 82.44C29.5513 83.24 29.9513 84.1467 30.4313 85.16C30.6446 85.5867 30.7513 86.0667 30.7513 86.6C30.7513 87.7733 30.1913 88.8133 29.0713 89.72C28.0046 90.5733 26.8046 91 25.4713 91C23.7646 91 22.5113 90.2533 21.7113 88.76C20.1113 85.9333 19.3112 82.8933 19.3112 79.64C19.3112 76.28 20.2179 73.2133 22.0313 70.44C23.8979 67.6667 26.6979 65.4533 30.4313 63.8C34.1646 62.0933 38.7779 61.24 44.2713 61.24C46.6713 61.24 48.8579 61.3733 50.8313 61.64C52.8579 61.9067 55.0713 62.4133 57.4713 63.16C60.0846 63.96 61.3913 65.4533 61.3913 67.64C61.3913 70.5733 60.1379 72.04 57.6313 72.04L54.5113 93.56C60.7513 92.92 65.8179 90.2533 69.7113 85.56C73.6579 80.8133 76.9379 74.3867 79.5513 66.28C80.0313 64.7867 80.8313 63.64 81.9513 62.84C83.1246 62.04 84.5913 61.64 86.3513 61.64C87.8446 61.64 88.9913 61.9867 89.7913 62.68C90.6446 63.32 91.0713 64.2533 91.0713 65.48C91.0713 65.8533 90.9646 66.4667 90.7513 67.32C88.0846 76.12 84.2713 83.1067 79.3113 88.28C74.3513 93.4533 68.9379 96.8933 63.0713 98.6C65.0979 99.08 66.7513 99.8 68.0313 100.76C69.3646 101.72 70.4846 102.92 71.3913 104.36C72.2979 105.747 73.3379 107.693 74.5113 110.2C76.1646 113.72 77.7113 116.227 79.1513 117.72C80.5913 119.16 82.2713 119.88 84.1913 119.88C85.8979 119.88 87.5246 119.32 89.0713 118.2C90.6179 117.027 92.5646 115.053 94.9113 112.28C95.5513 111.533 96.2713 111.16 97.0713 111.16ZM101.071 129.4C97.764 129.4 95.124 128.2 93.1506 125.8C91.1773 123.4 90.1906 120.253 90.1906 116.36C90.1906 112.093 91.1773 108.067 93.1506 104.28C95.124 100.44 97.7373 97.3733 100.991 95.08C104.297 92.7333 107.791 91.56 111.471 91.56C112.644 91.56 113.417 91.8 113.791 92.28C114.217 92.7067 114.564 93.5067 114.831 94.68C115.951 94.4667 117.124 94.36 118.351 94.36C120.964 94.36 122.271 95.2933 122.271 97.16C122.271 98.28 121.871 100.947 121.071 105.16C119.844 111.293 119.231 115.56 119.231 117.96C119.231 118.76 119.417 119.4 119.791 119.88C120.217 120.36 120.751 120.6 121.391 120.6C122.404 120.6 123.631 119.96 125.071 118.68C126.511 117.347 128.457 115.213 130.911 112.28C131.551 111.533 132.271 111.16 133.071 111.16C133.764 111.16 134.297 111.48 134.671 112.12C135.097 112.76 135.311 113.64 135.311 114.76C135.311 116.893 134.804 118.547 133.791 119.72C131.604 122.44 129.284 124.733 126.831 126.6C124.377 128.467 122.004 129.4 119.711 129.4C117.951 129.4 116.324 128.813 114.831 127.64C113.391 126.413 112.297 124.76 111.551 122.68C108.777 127.16 105.284 129.4 101.071 129.4ZM103.951 121.32C105.124 121.32 106.244 120.627 107.311 119.24C108.377 117.853 109.151 116.013 109.631 113.72L112.591 99C110.351 99.0533 108.271 99.9067 106.351 101.56C104.484 103.16 102.991 105.293 101.871 107.96C100.751 110.627 100.191 113.453 100.191 116.44C100.191 118.093 100.511 119.32 101.151 120.12C101.844 120.92 102.777 121.32 103.951 121.32ZM161.129 102.68C162.302 102.68 163.289 103.107 164.089 103.96C164.942 104.76 165.369 105.773 165.369 107C165.369 107.693 165.209 108.44 164.889 109.24C164.035 111.213 162.835 112.867 161.289 114.2C159.742 115.533 158.035 116.2 156.169 116.2C154.675 116.2 153.395 115.667 152.329 114.6C151.315 113.533 150.809 112.093 150.809 110.28C150.809 109.267 150.862 108.173 150.969 107C151.075 106.147 151.129 105.56 151.129 105.24C151.129 104.813 151.022 104.493 150.809 104.28C150.649 104.067 150.435 103.96 150.169 103.96C149.422 103.96 148.409 104.867 147.129 106.68C145.849 108.44 144.569 110.787 143.289 113.72C142.009 116.653 140.969 119.747 140.169 123C139.582 125.56 138.915 127.267 138.169 128.12C137.422 128.973 136.195 129.4 134.489 129.4C132.462 129.4 131.022 128.333 130.169 126.2C129.369 124.067 128.969 120.653 128.969 115.96C128.969 109.027 129.955 102.44 131.929 96.2C132.409 94.6533 133.182 93.5333 134.249 92.84C135.369 92.0933 136.915 91.72 138.889 91.72C139.955 91.72 140.702 91.8533 141.129 92.12C141.555 92.3867 141.769 92.8933 141.769 93.64C141.769 94.4933 141.369 96.4133 140.569 99.4C140.035 101.533 139.609 103.4 139.289 105C138.969 106.6 138.702 108.573 138.489 110.92C140.249 106.333 142.222 102.6 144.409 99.72C146.595 96.84 148.729 94.7867 150.809 93.56C152.889 92.3333 154.782 91.72 156.489 91.72C158.035 91.72 159.209 92.1733 160.009 93.08C160.862 93.9333 161.289 95.2133 161.289 96.92C161.289 97.9333 160.995 99.8533 160.409 102.68H161.129ZM204.098 111.16C204.791 111.16 205.325 111.48 205.698 112.12C206.125 112.76 206.338 113.64 206.338 114.76C206.338 116.893 205.831 118.547 204.818 119.72C202.525 122.547 200.018 124.867 197.298 126.68C194.578 128.493 191.458 129.4 187.938 129.4C177.058 129.4 171.618 121.747 171.618 106.44C171.618 104.093 171.698 101.72 171.858 99.32H168.738C167.138 99.32 166.045 99.0267 165.458 98.44C164.925 97.8533 164.658 96.92 164.658 95.64C164.658 92.6533 165.858 91.16 168.258 91.16H172.818C173.725 85.2933 175.111 79.9333 176.978 75.08C178.845 70.2267 181.085 66.36 183.698 63.48C186.365 60.6 189.218 59.16 192.258 59.16C194.498 59.16 196.258 60.1467 197.538 62.12C198.818 64.0933 199.458 66.5733 199.458 69.56C199.458 77.8267 195.991 85.0267 189.058 91.16H198.018C198.871 91.16 199.485 91.3467 199.858 91.72C200.231 92.0933 200.418 92.7867 200.418 93.8C200.418 97.48 197.405 99.32 191.378 99.32H181.618C181.511 101.987 181.458 104.067 181.458 105.56C181.458 111.107 182.098 115 183.378 117.24C184.711 119.48 186.791 120.6 189.618 120.6C191.911 120.6 193.938 119.907 195.698 118.52C197.458 117.133 199.538 115.053 201.938 112.28C202.578 111.533 203.298 111.16 204.098 111.16ZM190.098 66.84C189.298 66.84 188.391 67.8533 187.378 69.88C186.418 71.8533 185.485 74.6267 184.578 78.2C183.725 81.72 183.005 85.64 182.418 89.96C185.565 87.24 187.911 84.2 189.458 80.84C191.058 77.4267 191.858 74.3333 191.858 71.56C191.858 68.4133 191.271 66.84 190.098 66.84ZM240.624 104.44C241.318 104.44 241.851 104.787 242.224 105.48C242.598 106.173 242.784 107.053 242.784 108.12C242.784 110.68 242.011 112.2 240.464 112.68C237.264 113.8 233.744 114.44 229.904 114.6C228.891 119.08 226.891 122.68 223.904 125.4C220.918 128.067 217.531 129.4 213.744 129.4C210.544 129.4 207.798 128.627 205.504 127.08C203.264 125.533 201.558 123.48 200.384 120.92C199.211 118.36 198.624 115.587 198.624 112.6C198.624 108.547 199.398 104.947 200.944 101.8C202.491 98.6 204.624 96.12 207.344 94.36C210.064 92.5467 213.078 91.64 216.384 91.64C220.438 91.64 223.691 93.0533 226.144 95.88C228.651 98.6533 230.118 102.093 230.544 106.2C233.051 106.04 236.038 105.507 239.504 104.6C239.931 104.493 240.304 104.44 240.624 104.44ZM214.384 120.92C216.091 120.92 217.558 120.227 218.784 118.84C220.064 117.453 220.918 115.453 221.344 112.84C219.691 111.72 218.411 110.253 217.504 108.44C216.651 106.627 216.224 104.707 216.224 102.68C216.224 101.827 216.304 100.973 216.464 100.12H216.064C213.931 100.12 212.144 101.16 210.704 103.24C209.318 105.267 208.624 108.147 208.624 111.88C208.624 114.813 209.184 117.053 210.304 118.6C211.478 120.147 212.838 120.92 214.384 120.92ZM276.878 111.32C277.571 111.32 278.105 111.667 278.478 112.36C278.905 113 279.118 113.827 279.118 114.84C279.118 116.067 278.931 117.027 278.558 117.72C278.185 118.413 277.598 119.027 276.798 119.56C272.211 122.653 268.851 124.947 266.718 126.44L261.598 129.88C259.571 140.92 256.905 149.587 253.598 155.88C250.345 162.227 246.185 165.4 241.118 165.4C238.398 165.4 236.185 164.547 234.478 162.84C232.771 161.187 231.918 159 231.918 156.28C231.918 152.493 233.411 148.413 236.398 144.04C239.385 139.72 244.985 134.387 253.198 128.04L253.678 124.92C252.771 126.36 251.571 127.48 250.078 128.28C248.638 129.027 247.198 129.4 245.758 129.4C242.451 129.4 239.811 128.2 237.838 125.8C235.865 123.4 234.878 120.253 234.878 116.36C234.878 112.093 235.865 108.067 237.838 104.28C239.811 100.44 242.425 97.3733 245.678 95.08C248.985 92.7333 252.478 91.56 256.158 91.56C257.331 91.56 258.105 91.8 258.478 92.28C258.905 92.7067 259.251 93.5067 259.518 94.68C260.531 94.4667 261.705 94.36 263.038 94.36C264.371 94.36 265.305 94.5733 265.838 95C266.425 95.3733 266.718 96.1467 266.718 97.32C266.718 97.96 266.691 98.4667 266.638 98.84C266.425 100.493 265.758 104.68 264.638 111.4C264.425 112.68 264.185 114.093 263.918 115.64C263.705 117.133 263.465 118.733 263.198 120.44C267.305 117.24 271.251 114.413 275.038 111.96C275.731 111.533 276.345 111.32 276.878 111.32ZM248.638 121.32C249.865 121.32 251.038 120.573 252.158 119.08C253.278 117.587 254.078 115.453 254.558 112.68L257.118 99C254.931 99.0533 252.905 99.9067 251.038 101.56C249.171 103.16 247.678 105.293 246.558 107.96C245.438 110.627 244.878 113.453 244.878 116.44C244.878 118.093 245.198 119.32 245.838 120.12C246.531 120.92 247.465 121.32 248.638 121.32ZM241.998 157.64C243.331 157.64 244.825 156.04 246.478 152.84C248.185 149.64 249.811 144.547 251.358 137.56C247.251 141.08 244.291 144.253 242.478 147.08C240.665 149.907 239.758 152.387 239.758 154.52C239.758 155.427 239.918 156.173 240.238 156.76C240.611 157.347 241.198 157.64 241.998 157.64ZM279.02 129.4C276.993 129.4 275.553 128.333 274.7 126.2C273.9 124.067 273.5 120.653 273.5 115.96C273.5 109.027 274.487 102.44 276.46 96.2C276.94 94.6533 277.713 93.5333 278.78 92.84C279.9 92.0933 281.447 91.72 283.42 91.72C284.487 91.72 285.233 91.8533 285.66 92.12C286.087 92.3867 286.3 92.8933 286.3 93.64C286.3 94.4933 285.9 96.4133 285.1 99.4C284.567 101.533 284.14 103.4 283.82 105C283.5 106.6 283.233 108.573 283.02 110.92C284.78 106.333 286.753 102.6 288.94 99.72C291.127 96.84 293.26 94.7867 295.34 93.56C297.473 92.3333 299.42 91.72 301.18 91.72C304.647 91.72 306.38 93.4533 306.38 96.92C306.38 97.6133 306.14 99.2933 305.66 101.96C305.233 104.093 305.02 105.427 305.02 105.96C305.02 107.827 305.687 108.76 307.02 108.76C308.513 108.76 310.433 107.587 312.78 105.24C313.473 104.547 314.193 104.2 314.94 104.2C315.633 104.2 316.167 104.52 316.54 105.16C316.967 105.747 317.18 106.547 317.18 107.56C317.18 109.533 316.647 111.08 315.58 112.2C314.087 113.747 312.327 115.08 310.3 116.2C308.327 117.267 306.22 117.8 303.98 117.8C301.153 117.8 298.993 117.08 297.5 115.64C296.06 114.2 295.34 112.253 295.34 109.8C295.34 109 295.42 108.2 295.58 107.4C295.687 106.333 295.74 105.613 295.74 105.24C295.74 104.387 295.447 103.96 294.86 103.96C294.06 103.96 292.993 104.867 291.66 106.68C290.38 108.44 289.1 110.787 287.82 113.72C286.54 116.653 285.5 119.747 284.7 123C284.113 125.507 283.42 127.213 282.62 128.12C281.873 128.973 280.673 129.4 279.02 129.4ZM319.586 129.4C316.28 129.4 313.64 128.2 311.666 125.8C309.693 123.4 308.706 120.253 308.706 116.36C308.706 112.093 309.693 108.067 311.666 104.28C313.64 100.44 316.253 97.3733 319.506 95.08C322.813 92.7333 326.306 91.56 329.986 91.56C331.16 91.56 331.933 91.8 332.306 92.28C332.733 92.7067 333.08 93.5067 333.346 94.68C334.466 94.4667 335.64 94.36 336.866 94.36C339.48 94.36 340.786 95.2933 340.786 97.16C340.786 98.28 340.386 100.947 339.586 105.16C338.36 111.293 337.746 115.56 337.746 117.96C337.746 118.76 337.933 119.4 338.306 119.88C338.733 120.36 339.266 120.6 339.906 120.6C340.92 120.6 342.146 119.96 343.586 118.68C345.026 117.347 346.973 115.213 349.426 112.28C350.066 111.533 350.786 111.16 351.586 111.16C352.28 111.16 352.813 111.48 353.186 112.12C353.613 112.76 353.826 113.64 353.826 114.76C353.826 116.893 353.32 118.547 352.306 119.72C350.12 122.44 347.8 124.733 345.346 126.6C342.893 128.467 340.52 129.4 338.226 129.4C336.466 129.4 334.84 128.813 333.346 127.64C331.906 126.413 330.813 124.76 330.066 122.68C327.293 127.16 323.8 129.4 319.586 129.4ZM322.466 121.32C323.64 121.32 324.76 120.627 325.826 119.24C326.893 117.853 327.666 116.013 328.146 113.72L331.106 99C328.866 99.0533 326.786 99.9067 324.866 101.56C323 103.16 321.506 105.293 320.386 107.96C319.266 110.627 318.706 113.453 318.706 116.44C318.706 118.093 319.026 119.32 319.666 120.12C320.36 120.92 321.293 121.32 322.466 121.32ZM357.164 129.4C353.858 129.4 351.218 128.2 349.244 125.8C347.271 123.4 346.284 120.253 346.284 116.36C346.284 112.093 347.271 108.067 349.244 104.28C351.218 100.44 353.831 97.3733 357.084 95.08C360.391 92.7333 363.884 91.56 367.564 91.56C368.738 91.56 369.511 91.8 369.884 92.28C370.311 92.7067 370.658 93.5067 370.924 94.68C372.044 94.4667 373.218 94.36 374.444 94.36C377.058 94.36 378.364 95.2933 378.364 97.16C378.364 98.28 377.964 100.947 377.164 105.16C375.938 111.293 375.324 115.56 375.324 117.96C375.324 118.76 375.511 119.4 375.884 119.88C376.311 120.36 376.844 120.6 377.484 120.6C378.498 120.6 379.724 119.96 381.164 118.68C382.604 117.347 384.551 115.213 387.004 112.28C387.644 111.533 388.364 111.16 389.164 111.16C389.858 111.16 390.391 111.48 390.764 112.12C391.191 112.76 391.404 113.64 391.404 114.76C391.404 116.893 390.898 118.547 389.884 119.72C387.698 122.44 385.378 124.733 382.924 126.6C380.471 128.467 378.098 129.4 375.804 129.4C374.044 129.4 372.418 128.813 370.924 127.64C369.484 126.413 368.391 124.76 367.644 122.68C364.871 127.16 361.378 129.4 357.164 129.4ZM360.044 121.32C361.218 121.32 362.338 120.627 363.404 119.24C364.471 117.853 365.244 116.013 365.724 113.72L368.684 99C366.444 99.0533 364.364 99.9067 362.444 101.56C360.578 103.16 359.084 105.293 357.964 107.96C356.844 110.627 356.284 113.453 356.284 116.44C356.284 118.093 356.604 119.32 357.244 120.12C357.938 120.92 358.871 121.32 360.044 121.32ZM416.041 106.6C417.535 106.6 418.281 107.72 418.281 109.96C418.281 114.173 414.975 116.28 408.361 116.28C407.081 116.28 405.241 116.04 402.841 115.56C403.535 118.867 404.095 122.547 404.521 126.6C405.001 130.6 405.241 133.907 405.241 136.52C405.241 142.28 404.308 146.68 402.441 149.72C400.575 152.76 398.121 154.28 395.081 154.28C391.241 154.28 388.495 151.56 386.841 146.12C385.241 140.68 384.441 132.467 384.441 121.48C384.441 111.24 385.535 100.867 387.721 90.36C389.961 79.8 393.001 71.08 396.841 64.2C400.735 57.2667 405.001 53.8 409.641 53.8C412.148 53.8 414.095 54.92 415.481 57.16C416.921 59.4 417.641 62.4133 417.641 66.2C417.641 78.7333 410.148 92.3867 395.161 107.16C394.628 112.387 394.361 116.973 394.361 120.92C394.361 126.413 394.548 132.04 394.921 137.8C395.295 143.613 395.908 146.52 396.761 146.52C398.361 146.52 399.161 143.747 399.161 138.2C399.161 134.04 398.868 130.013 398.281 126.12C397.748 122.227 397.001 118.12 396.041 113.8C395.988 113.107 396.201 112.227 396.681 111.16C397.215 110.093 397.855 109.16 398.601 108.36C399.348 107.56 400.015 107.16 400.601 107.16C401.668 107.16 402.948 107.213 404.441 107.32C404.921 107.373 405.481 107.4 406.121 107.4C408.255 107.4 410.628 107.213 413.241 106.84C413.668 106.787 414.121 106.733 414.601 106.68C415.081 106.627 415.561 106.6 416.041 106.6ZM407.961 61.72C407.001 61.72 405.801 63.3467 404.361 66.6C402.975 69.8533 401.588 74.1733 400.201 79.56C398.815 84.8933 397.615 90.5467 396.601 96.52C400.868 91.6667 404.148 86.6267 406.441 81.4C408.735 76.12 409.908 71.1867 409.961 66.6C409.961 63.3467 409.295 61.72 407.961 61.72Z" fill="black"/>
<path d="M98.6713 112.12L94.3524 114.639L94.4279 114.769L94.511 114.894L98.6713 112.12ZM97.7913 119.72L101.643 122.908L101.646 122.904L97.7913 119.72ZM90.0312 126.92L92.7045 131.145L92.735 131.126L92.7652 131.106L90.0312 126.92ZM71.0713 125.96L67.6541 129.61L67.675 129.63L67.6962 129.649L71.0713 125.96ZM64.0312 115.08L68.5983 113.045L68.5907 113.028L68.5831 113.011L64.0312 115.08ZM60.0313 107.24L55.6981 109.735L55.7433 109.813L55.7913 109.89L60.0313 107.24ZM56.9912 103.56L54.0253 107.585L54.0957 107.637L54.1678 107.687L56.9912 103.56ZM53.1513 102.2L53.6657 97.2265L48.9088 96.7344L48.2056 101.465L53.1513 102.2ZM52.2713 108.12L47.3256 107.385L47.3243 107.394L52.2713 108.12ZM45.7113 124.6L42.1192 121.122L42.1048 121.137L42.0906 121.152L45.7113 124.6ZM22.5913 127L19.8915 131.208L19.9374 131.238L19.984 131.266L22.5913 127ZM16.6712 120.12L12.0112 121.932L12.0229 121.962L12.035 121.992L16.6712 120.12ZM17.2313 112.84L21.4496 115.524H21.4496L17.2313 112.84ZM21.8713 111.64L18.8015 115.587L18.9457 115.699L19.0978 115.8L21.8713 111.64ZM23.2312 113.4L18.7591 115.636L18.7895 115.697L18.8216 115.757L23.2312 113.4ZM27.5513 119.88L24.0157 123.416L24.0533 123.453L24.0917 123.49L27.5513 119.88ZM37.7113 118.84L33.776 115.756L33.7702 115.763L33.7645 115.77L37.7113 118.84ZM40.9913 109.8L45.9301 110.58L45.9341 110.554L45.9378 110.529L40.9913 109.8ZM42.1113 102.2L47.0578 102.929L47.9021 97.2H42.1113V102.2ZM37.9513 101.16L41.4868 97.6245H41.4868L37.9513 101.16ZM37.9513 95L34.1884 91.7075L34.1806 91.7164L34.1728 91.7253L37.9513 95ZM43.3113 93.72V98.72H47.6477L48.261 94.4271L43.3113 93.72ZM44.1113 88.28L49.0501 89.0598L49.0577 89.0112L49.0645 88.9624L44.1113 88.28ZM46.5913 70.28L51.5445 70.9624L52.2421 65.8988L47.1644 65.313L46.5913 70.28ZM32.3513 72.44L35.1028 76.6148L35.1355 76.5932L35.1679 76.5711L32.3513 72.44ZM29.2313 82.44L24.4589 83.9314L24.5168 84.1167L24.5889 84.297L29.2313 82.44ZM30.4313 85.16L25.9126 87.3004L25.9353 87.3485L25.9591 87.3961L30.4313 85.16ZM29.0713 89.72L32.1947 93.6243L32.206 93.6153L32.2172 93.6062L29.0713 89.72ZM21.7113 88.76L26.1186 86.3989L26.0912 86.3476L26.0625 86.297L21.7113 88.76ZM22.0312 70.44L17.8833 67.6481L17.8647 67.6758L17.8464 67.7038L22.0312 70.44ZM30.4313 63.8L32.4559 68.3717L32.483 68.3597L32.51 68.3474L30.4313 63.8ZM50.8312 61.64L50.1617 66.595L50.1703 66.5961L50.179 66.5973L50.8312 61.64ZM57.4713 63.16L55.9859 67.9343L55.9968 67.9377L56.0077 67.941L57.4713 63.16ZM57.6313 72.04V67.04H53.3039L52.683 71.3226L57.6313 72.04ZM54.5113 93.56L49.563 92.8426L48.643 99.1881L55.0214 98.5339L54.5113 93.56ZM69.7113 85.56L65.8666 82.3633L65.863 82.3677L69.7113 85.56ZM79.5513 66.28L84.3101 67.8141L84.3114 67.81L79.5513 66.28ZM81.9513 62.84L79.1346 58.7089L79.0895 58.7396L79.0451 58.7713L81.9513 62.84ZM89.7913 62.68L86.5166 66.4584L86.65 66.5741L86.7913 66.68L89.7913 62.68ZM90.7513 67.32L95.5364 68.77L95.5721 68.6522L95.602 68.5327L90.7513 67.32ZM79.3113 88.28L82.9204 91.7403L79.3113 88.28ZM63.0713 98.6L61.6746 93.799L43.4681 99.0955L61.9189 103.465L63.0713 98.6ZM68.0312 100.76L65.0312 104.76L65.0702 104.789L65.1097 104.818L68.0312 100.76ZM71.3913 104.36L67.1601 107.024L67.1829 107.06L67.2064 107.096L71.3913 104.36ZM74.5113 110.2L69.9828 112.32L69.9856 112.326L74.5113 110.2ZM79.1513 117.72L75.552 121.191L75.5836 121.223L75.6157 121.256L79.1513 117.72ZM89.0713 118.2L92.0038 122.25L92.0489 122.217L92.0932 122.183L89.0713 118.2ZM94.9113 112.28L91.115 109.026L91.1046 109.038L91.0943 109.05L94.9113 112.28ZM97.0713 116.16C96.6185 116.16 96.0159 116.046 95.4188 115.687C94.8374 115.339 94.5087 114.907 94.3524 114.639L102.99 109.601C101.796 107.553 99.687 106.16 97.0713 106.16V116.16ZM94.511 114.894C94.3479 114.649 94.2993 114.468 94.292 114.438C94.2862 114.414 94.3113 114.507 94.3113 114.76H104.311C104.311 113.08 104.003 111.103 102.832 109.346L94.511 114.894ZM94.3113 114.76C94.3113 116.039 94.008 116.449 93.9364 116.536L101.646 122.904C103.601 120.538 104.311 117.641 104.311 114.76H94.3113ZM93.9393 116.532C91.6129 119.343 89.3894 121.367 87.2973 122.734L92.7652 131.106C95.8998 129.059 98.8496 126.283 101.643 122.908L93.9393 116.532ZM87.358 122.695C85.6627 123.767 83.5285 124.4 80.7513 124.4V134.4C85.1207 134.4 89.1731 133.379 92.7045 131.145L87.358 122.695ZM80.7513 124.4C77.8385 124.4 75.8838 123.586 74.4463 122.271L67.6962 129.649C71.2721 132.921 75.7707 134.4 80.7513 134.4V124.4ZM74.4884 122.31C72.6655 120.603 70.6499 117.648 68.5983 113.045L59.4642 117.115C61.7859 122.325 64.4637 126.623 67.6541 129.61L74.4884 122.31ZM68.5831 113.011C66.9587 109.437 65.5167 106.583 64.2712 104.59L55.7913 109.89C56.6792 111.311 57.9038 113.683 59.4794 117.149L68.5831 113.011ZM64.3644 104.745C63.1916 102.708 61.7249 100.74 59.8147 99.4335L54.1678 107.687C54.2843 107.766 54.8443 108.252 55.6981 109.735L64.3644 104.745ZM59.9572 99.5347C58.0749 98.1477 55.8921 97.4569 53.6657 97.2265L52.6368 107.173C53.5037 107.263 53.881 107.479 54.0253 107.585L59.9572 99.5347ZM48.2056 101.465L47.3256 107.385L57.2169 108.855L58.0969 102.935L48.2056 101.465ZM47.3243 107.394C46.2667 114.595 44.3075 118.862 42.1192 121.122L49.3033 128.078C53.6217 123.618 56.0358 116.898 57.2182 108.846L47.3243 107.394ZM42.0906 121.152C40.0348 123.31 37.037 124.64 32.4312 124.64V134.64C39.1322 134.64 44.9877 132.61 49.3319 128.048L42.0906 121.152ZM32.4312 124.64C29.5853 124.64 27.2232 123.971 25.1985 122.734L19.984 131.266C23.7193 133.549 27.9172 134.64 32.4312 134.64V124.64ZM25.291 122.792C23.2246 121.466 21.9927 119.944 21.3075 118.248L12.035 121.992C13.5898 125.842 16.3045 128.907 19.8915 131.208L25.291 122.792ZM21.3313 118.308C21.2015 117.974 21.1112 117.554 21.1112 117H11.1112C11.1112 118.686 11.3943 120.346 12.0112 121.932L21.3313 118.308ZM21.1112 117C21.1112 116.205 21.2867 115.78 21.4496 115.524L13.0129 110.156C11.6825 112.246 11.1112 114.595 11.1112 117H21.1112ZM21.4496 115.524C21.5082 115.432 21.4245 115.599 21.1185 115.786C20.7789 115.994 20.4033 116.08 20.1113 116.08V106.08C16.8898 106.08 14.4795 107.851 13.0129 110.156L21.4496 115.524ZM20.1113 116.08C20.0075 116.08 19.8096 116.066 19.5552 115.985C19.2936 115.901 19.033 115.767 18.8015 115.587L24.941 107.693C23.4624 106.543 21.7529 106.08 20.1113 106.08V116.08ZM19.0978 115.8C18.9342 115.691 18.8172 115.589 18.7423 115.516C18.6676 115.444 18.6267 115.393 18.6148 115.377C18.5965 115.354 18.6518 115.421 18.7591 115.636L27.7034 111.164C27.1138 109.985 26.1773 108.501 24.6447 107.48L19.0978 115.8ZM18.8216 115.757C20.5207 118.936 22.2429 121.643 24.0157 123.416L31.0868 116.344C30.4063 115.664 29.2485 114.051 27.6409 111.043L18.8216 115.757ZM24.0917 123.49C26.3556 125.659 29.1907 126.72 32.2713 126.72V116.72C31.6185 116.72 31.3069 116.554 31.0108 116.27L24.0917 123.49ZM32.2713 126.72C36.1774 126.72 39.3681 124.854 41.658 121.91L33.7645 115.77C33.0678 116.666 32.6318 116.72 32.2713 116.72V126.72ZM41.6465 121.924C43.9524 118.982 45.2326 114.997 45.9301 110.58L36.0524 109.02C35.4699 112.71 34.5635 114.751 33.776 115.756L41.6465 121.924ZM45.9378 110.529L47.0578 102.929L37.1647 101.471L36.0447 109.071L45.9378 110.529ZM42.1113 97.2H40.8313V107.2H42.1113V97.2ZM40.8313 97.2C40.6834 97.2 40.7274 97.1787 40.8895 97.2372C41.0712 97.3028 41.2928 97.4305 41.4868 97.6245L34.4157 104.696C36.2691 106.549 38.63 107.2 40.8313 107.2V97.2ZM41.4868 97.6245C41.6808 97.8185 41.8084 98.0401 41.874 98.2218C41.9325 98.3838 41.9113 98.4279 41.9113 98.28H31.9113C31.9113 100.481 32.5624 102.842 34.4157 104.696L41.4868 97.6245ZM41.9113 98.28C41.9113 97.996 41.9475 97.8994 41.9374 97.9312C41.9317 97.9493 41.9148 97.9964 41.8786 98.0622C41.842 98.1289 41.7924 98.2023 41.7297 98.2747L34.1728 91.7253C32.4743 93.6851 31.9113 96.0698 31.9113 98.28H41.9113ZM41.7141 98.2925C41.6932 98.3165 41.5677 98.4477 41.3202 98.5641C41.0651 98.6842 40.8255 98.72 40.6712 98.72V88.72C38.0629 88.72 35.8166 89.8466 34.1884 91.7075L41.7141 98.2925ZM40.6712 98.72H43.3113V88.72H40.6712V98.72ZM48.261 94.4271C48.6346 91.812 48.8965 90.0323 49.0501 89.0598L39.1724 87.5002C39.006 88.5544 38.7346 90.4014 38.3615 93.0129L48.261 94.4271ZM49.0645 88.9624L51.5445 70.9624L41.638 69.5976L39.158 87.5976L49.0645 88.9624ZM47.1644 65.313C45.6129 65.1339 44.1134 65.04 42.6713 65.04V75.04C43.6824 75.04 44.7963 75.1061 46.0181 75.247L47.1644 65.313ZM42.6713 65.04C37.6825 65.04 33.0721 65.8969 29.5346 68.3089L35.1679 76.5711C36.3238 75.7831 38.5933 75.04 42.6713 75.04V65.04ZM29.5997 68.2652C25.7774 70.7845 23.8313 74.6337 23.8313 79.16H33.8312C33.8312 77.8196 34.2318 77.1889 35.1028 76.6148L29.5997 68.2652ZM23.8313 79.16C23.8313 80.7762 23.9868 82.4207 24.4589 83.9314L34.0037 80.9486C33.9424 80.7526 33.8312 80.2105 33.8312 79.16H23.8313ZM24.5889 84.297C24.9565 85.2161 25.4007 86.2199 25.9126 87.3004L34.9499 83.0196C34.5018 82.0734 34.146 81.2638 33.8736 80.583L24.5889 84.297ZM25.9591 87.3961C25.7861 87.0501 25.7513 86.7503 25.7513 86.6H35.7513C35.7513 85.3831 35.503 84.1232 34.9034 82.9239L25.9591 87.3961ZM25.7513 86.6C25.7513 86.4914 25.7648 86.3639 25.799 86.2286C25.8332 86.0934 25.8809 85.9785 25.9289 85.8895C26.024 85.7128 26.0805 85.7081 25.9253 85.8338L32.2172 93.6062C34.2155 91.9886 35.7513 89.624 35.7513 86.6H25.7513ZM25.9478 85.8157C25.7441 85.9786 25.6394 86 25.4713 86V96C27.9698 96 30.2651 95.1681 32.1947 93.6243L25.9478 85.8157ZM25.4713 86C25.4091 86 25.4255 85.9933 25.4992 86.0119C25.5772 86.0315 25.6885 86.0719 25.8103 86.1445C25.9322 86.2171 26.0235 86.2975 26.082 86.3614C26.1376 86.422 26.1438 86.4459 26.1186 86.3989L17.3039 91.1211C18.0626 92.5375 19.1666 93.8266 20.6922 94.7355C22.2158 95.6432 23.8718 96 25.4713 96V86ZM26.0625 86.297C24.8885 84.2228 24.3112 82.0316 24.3112 79.64H14.3112C14.3112 83.7551 15.334 87.6438 17.36 91.223L26.0625 86.297ZM24.3112 79.64C24.3112 77.2374 24.9425 75.1241 26.2161 73.1762L17.8464 67.7038C15.4933 71.3026 14.3112 75.3226 14.3112 79.64H24.3112ZM26.1792 73.2319C27.4141 71.3971 29.3926 69.7284 32.4559 68.3717L28.4066 59.2282C24.0033 61.1783 20.3817 63.9362 17.8833 67.6481L26.1792 73.2319ZM32.51 68.3474C35.4097 67.0218 39.265 66.24 44.2713 66.24V56.24C38.2909 56.24 32.9194 57.1649 28.3525 59.2526L32.51 68.3474ZM44.2713 66.24C46.4911 66.24 48.4498 66.3636 50.1617 66.595L51.5008 56.685C49.266 56.383 46.8514 56.24 44.2713 56.24V66.24ZM50.179 66.5973C51.8678 66.8195 53.7987 67.2538 55.9859 67.9343L58.9566 58.3857C56.3438 57.5729 53.8481 56.9938 51.4835 56.6827L50.179 66.5973ZM56.0077 67.941C56.3628 68.0497 56.5655 68.1496 56.6614 68.2057C56.7523 68.2589 56.7236 68.2585 56.6484 68.1725C56.5662 68.0787 56.4858 67.9477 56.4345 67.803C56.3856 67.6655 56.3913 67.5956 56.3913 67.64H66.3913C66.3913 65.4685 65.7084 63.3409 64.1741 61.5875C62.7181 59.9234 60.8085 58.9526 58.9348 58.379L56.0077 67.941ZM56.3913 67.64C56.3913 68.0335 56.3474 68.1957 56.3475 68.1952C56.3517 68.1807 56.4178 67.9636 56.6501 67.6917C56.8968 67.403 57.1983 67.2086 57.4592 67.1068C57.6898 67.0169 57.7815 67.04 57.6313 67.04V77.04C59.8787 77.04 62.4088 76.3457 64.2524 74.1883C65.9674 72.1813 66.3913 69.702 66.3913 67.64H56.3913ZM52.683 71.3226L49.563 92.8426L59.4595 94.2774L62.5795 72.7574L52.683 71.3226ZM55.0214 98.5339C62.5229 97.7645 68.8035 94.4856 73.5595 88.7523L65.863 82.3677C62.8324 86.021 58.9796 88.0755 54.0011 88.5861L55.0214 98.5339ZM73.5559 88.7567C78.0338 83.3711 81.5703 76.3131 84.3101 67.8141L74.7924 64.7459C72.3056 72.4602 69.2821 78.2555 65.8666 82.3633L73.5559 88.7567ZM84.3114 67.81C84.5104 67.191 84.7317 66.9985 84.8574 66.9087L79.0451 58.7713C76.9308 60.2815 75.5522 62.3823 74.7911 64.75L84.3114 67.81ZM84.7679 66.9711C84.9312 66.8598 85.354 66.64 86.3513 66.64V56.64C83.8286 56.64 81.3179 57.2202 79.1346 58.7089L84.7679 66.9711ZM86.3513 66.64C86.5327 66.64 86.6652 66.6506 86.7553 66.6624C86.8451 66.6742 86.8847 66.6862 86.8843 66.6861C86.8828 66.6856 86.8403 66.6725 86.7702 66.6351C86.6987 66.5969 86.61 66.5394 86.5166 66.4584L93.0659 58.9016C91.0449 57.15 88.5579 56.64 86.3513 56.64V66.64ZM86.7913 66.68C86.5771 66.5194 86.3517 66.2622 86.2039 65.9388C86.0665 65.6382 86.0713 65.446 86.0713 65.48H96.0713C96.0713 62.9485 95.1042 60.4147 92.7913 58.68L86.7913 66.68ZM86.0713 65.48C86.0713 65.3465 86.0801 65.2686 86.0802 65.2676C86.0809 65.2612 86.0778 65.2906 86.0652 65.3633C86.0392 65.513 85.9887 65.7546 85.9005 66.1073L95.602 68.5327C95.8172 67.6719 96.0713 66.5285 96.0713 65.48H86.0713ZM85.9661 65.87C83.4651 74.1234 79.9853 80.3523 75.7021 84.8197L82.9204 91.7403C88.5572 85.8611 92.7041 78.1166 95.5364 68.77L85.9661 65.87ZM75.7021 84.8197C71.2433 89.4702 66.5633 92.3769 61.6746 93.799L64.4679 103.401C71.3126 101.41 77.4592 97.4365 82.9204 91.7403L75.7021 84.8197ZM61.9189 103.465C63.4696 103.833 64.4401 104.317 65.0312 104.76L71.0313 96.76C69.0624 95.2833 66.7263 94.3273 64.2236 93.7346L61.9189 103.465ZM65.1097 104.818C65.9022 105.388 66.5838 106.109 67.1601 107.024L75.6224 101.696C74.3854 99.7313 72.8269 98.0517 70.9528 96.7023L65.1097 104.818ZM67.2064 107.096C67.9273 108.199 68.8527 109.905 69.9828 112.32L79.0397 108.08C77.8232 105.481 76.6685 103.294 75.5761 101.624L67.2064 107.096ZM69.9856 112.326C71.7055 115.987 73.5315 119.095 75.552 121.191L82.7505 114.249C81.891 113.358 80.6237 111.453 79.0369 108.074L69.9856 112.326ZM75.6157 121.256C77.9303 123.57 80.8585 124.88 84.1913 124.88V114.88C83.684 114.88 83.2522 114.75 82.6868 114.184L75.6157 121.256ZM84.1913 124.88C87.075 124.88 89.7102 123.911 92.0038 122.25L86.1387 114.15C85.339 114.729 84.7209 114.88 84.1913 114.88V124.88ZM92.0932 122.183C94.0832 120.674 96.3117 118.366 98.7282 115.51L91.0943 109.05C88.8175 111.741 87.1527 113.38 86.0493 114.217L92.0932 122.183ZM98.7075 115.534C98.6964 115.547 98.5496 115.715 98.2328 115.879C97.8919 116.056 97.4837 116.16 97.0713 116.16V106.16C94.4827 106.16 92.4676 107.448 91.115 109.026L98.7075 115.534ZM93.1506 125.8L97.0128 122.624L93.1506 125.8ZM93.1506 104.28L97.5847 106.591L97.5913 106.578L97.5978 106.565L93.1506 104.28ZM100.991 95.08L103.871 99.1667L103.878 99.1621L103.884 99.1575L100.991 95.08ZM113.791 92.28L109.844 95.3497L110.035 95.5954L110.255 95.8155L113.791 92.28ZM114.831 94.68L109.955 95.7881L111.025 100.495L115.766 99.5917L114.831 94.68ZM121.071 105.16L125.974 106.141L125.978 106.117L125.983 106.093L121.071 105.16ZM119.791 119.88L115.844 122.95L115.945 123.079L116.054 123.202L119.791 119.88ZM125.071 118.68L128.392 122.417L128.43 122.383L128.468 122.349L125.071 118.68ZM130.911 112.28L127.114 109.026L127.095 109.049L127.075 109.072L130.911 112.28ZM134.671 112.12L130.352 114.639L130.427 114.769L130.51 114.894L134.671 112.12ZM133.791 119.72L130.007 116.452L129.949 116.519L129.894 116.587L133.791 119.72ZM126.831 126.6L129.858 130.579L126.831 126.6ZM114.831 127.64L111.588 131.446L111.664 131.51L111.742 131.572L114.831 127.64ZM111.551 122.68L116.257 120.991L112.755 111.236L107.299 120.048L111.551 122.68ZM107.311 119.24L103.348 116.191L107.311 119.24ZM109.631 113.72L114.525 114.744L114.529 114.725L114.533 114.706L109.631 113.72ZM112.591 99L117.493 99.9857L118.726 93.8525L112.472 94.0014L112.591 99ZM106.351 101.56L109.605 105.356L109.613 105.349L106.351 101.56ZM101.871 107.96L106.481 109.896L101.871 107.96ZM101.151 120.12L97.2463 123.243L97.3077 123.32L97.3722 123.395L101.151 120.12ZM101.071 124.4C99.1493 124.4 97.9686 123.787 97.0128 122.624L89.2885 128.976C92.2793 132.613 96.3786 134.4 101.071 134.4V124.4ZM97.0128 122.624C95.9458 121.327 95.1906 119.396 95.1906 116.36H85.1906C85.1906 121.111 86.4088 125.473 89.2885 128.976L97.0128 122.624ZM95.1906 116.36C95.1906 112.899 95.9828 109.664 97.5847 106.591L88.7166 101.969C86.3717 106.469 85.1906 111.288 85.1906 116.36H95.1906ZM97.5978 106.565C99.234 103.381 101.333 100.956 103.871 99.1667L98.1098 90.9933C94.1417 93.7905 91.0139 97.4987 88.7035 101.995L97.5978 106.565ZM103.884 99.1575C106.436 97.3469 108.933 96.56 111.471 96.56V86.56C106.648 86.56 102.159 88.1197 98.0969 91.0025L103.884 99.1575ZM111.471 96.56C111.759 96.56 111.704 96.5947 111.449 96.5153C111.178 96.4312 110.463 96.1456 109.844 95.3497L117.737 89.2103C115.828 86.7557 112.869 86.56 111.471 86.56V96.56ZM110.255 95.8155C110.052 95.6129 109.929 95.437 109.866 95.3365C109.802 95.235 109.778 95.1776 109.783 95.188C109.787 95.1968 109.808 95.2483 109.841 95.354C109.873 95.4586 109.913 95.6013 109.955 95.7881L119.706 93.5719C119.402 92.2315 118.81 90.2282 117.326 88.7445L110.255 95.8155ZM115.766 99.5917C116.556 99.4413 117.414 99.36 118.351 99.36V89.36C116.834 89.36 115.346 89.492 113.895 89.7683L115.766 99.5917ZM118.351 99.36C118.722 99.36 118.89 99.3948 118.908 99.399C118.923 99.4028 118.699 99.3533 118.384 99.1287C118.039 98.8819 117.71 98.5113 117.495 98.0494C117.292 97.614 117.271 97.2744 117.271 97.16H127.271C127.271 94.9125 126.391 92.5586 124.197 90.9913C122.313 89.6455 120.102 89.36 118.351 89.36V99.36ZM117.271 97.16C117.271 97.1592 117.27 97.2081 117.263 97.3214C117.256 97.4308 117.243 97.5769 117.223 97.7648C117.183 98.143 117.119 98.6366 117.026 99.2583C116.839 100.502 116.552 102.152 116.158 104.227L125.983 106.093C126.752 102.04 127.271 98.8537 127.271 97.16H117.271ZM116.168 104.179C114.947 110.282 114.231 115.001 114.231 117.96H124.231C124.231 116.119 124.741 112.305 125.974 106.141L116.168 104.179ZM114.231 117.96C114.231 119.52 114.6 121.35 115.844 122.95L123.737 116.81C124.235 117.45 124.231 118 124.231 117.96H114.231ZM116.054 123.202C117.425 124.745 119.317 125.6 121.391 125.6V115.6C121.711 115.6 122.125 115.664 122.562 115.86C122.999 116.057 123.319 116.324 123.528 116.558L116.054 123.202ZM121.391 125.6C124.336 125.6 126.759 123.869 128.392 122.417L121.749 114.943C121.225 115.408 120.897 115.615 120.758 115.687C120.61 115.764 120.852 115.6 121.391 115.6V125.6ZM128.468 122.349C130.148 120.793 132.258 118.462 134.746 115.488L127.075 109.072C124.656 111.965 122.874 113.9 121.674 115.011L128.468 122.349ZM134.707 115.534C134.696 115.547 134.549 115.715 134.232 115.879C133.891 116.056 133.483 116.16 133.071 116.16V106.16C130.482 106.16 128.467 107.448 127.114 109.026L134.707 115.534ZM133.071 116.16C132.618 116.16 132.015 116.046 131.418 115.687C130.837 115.339 130.508 114.907 130.352 114.639L138.99 109.601C137.795 107.553 135.686 106.16 133.071 106.16V116.16ZM130.51 114.894C130.347 114.649 130.299 114.468 130.291 114.438C130.286 114.414 130.311 114.507 130.311 114.76H140.311C140.311 113.08 140.002 111.103 138.831 109.346L130.51 114.894ZM130.311 114.76C130.311 115.441 130.229 115.879 130.15 116.135C130.077 116.375 130.01 116.448 130.007 116.452L137.575 122.988C139.624 120.615 140.311 117.642 140.311 114.76H130.311ZM129.894 116.587C127.929 119.032 125.894 121.03 123.803 122.621L129.858 130.579C132.674 128.437 135.279 125.848 137.688 122.853L129.894 116.587ZM123.803 122.621C121.923 124.051 120.588 124.4 119.711 124.4V134.4C123.42 134.4 126.832 132.882 129.858 130.579L123.803 122.621ZM119.711 124.4C119.162 124.4 118.606 124.248 117.92 123.708L111.742 131.572C114.041 133.379 116.739 134.4 119.711 134.4V124.4ZM118.073 123.834C117.402 123.262 116.758 122.389 116.257 120.991L106.845 124.369C107.836 127.131 109.38 129.565 111.588 131.446L118.073 123.834ZM107.299 120.048C105.175 123.48 103.106 124.4 101.071 124.4V134.4C107.462 134.4 112.38 130.84 115.802 125.312L107.299 120.048ZM103.951 126.32C107.324 126.32 109.741 124.281 111.274 122.289L103.348 116.191C103.068 116.555 102.949 116.605 103.039 116.549C103.092 116.515 103.205 116.455 103.374 116.404C103.546 116.352 103.743 116.32 103.951 116.32V126.32ZM111.274 122.289C112.927 120.139 113.94 117.536 114.525 114.744L104.737 112.696C104.361 114.491 103.827 115.567 103.348 116.191L111.274 122.289ZM114.533 114.706L117.493 99.9857L107.689 98.0143L104.729 112.734L114.533 114.706ZM112.472 94.0014C108.925 94.0859 105.763 95.4677 103.088 97.7712L109.613 105.349C110.778 104.346 111.777 104.021 112.71 103.999L112.472 94.0014ZM103.097 97.7637C100.544 99.9519 98.629 102.766 97.2607 106.024L106.481 109.896C107.352 107.821 108.424 106.368 109.605 105.356L103.097 97.7637ZM97.2607 106.024C95.8748 109.324 95.1906 112.811 95.1906 116.44H105.191C105.191 114.096 105.626 111.93 106.481 109.896L97.2607 106.024ZM95.1906 116.44C95.1906 118.581 95.5772 121.157 97.2463 123.243L105.055 116.997C105.264 117.258 105.292 117.429 105.269 117.338C105.243 117.24 105.191 116.962 105.191 116.44H95.1906ZM97.3722 123.395C99.1249 125.417 101.504 126.32 103.951 126.32V116.32C103.937 116.32 104.095 116.319 104.34 116.424C104.598 116.535 104.802 116.699 104.929 116.845L97.3722 123.395ZM164.089 103.96L160.441 107.38L160.551 107.497L160.669 107.608L164.089 103.96ZM164.889 109.24L169.478 111.225L169.505 111.161L169.531 111.097L164.889 109.24ZM161.289 114.2L164.553 117.987V117.987L161.289 114.2ZM152.329 114.6L148.704 118.044L148.748 118.09L148.793 118.136L152.329 114.6ZM150.969 107L146.007 106.38L145.997 106.463L145.989 106.547L150.969 107ZM150.809 104.28L146.809 107.28L147.022 107.564L147.273 107.816L150.809 104.28ZM147.129 106.68L151.172 109.621L151.193 109.592L151.214 109.563L147.129 106.68ZM143.289 113.72L138.706 111.72L143.289 113.72ZM140.169 123L135.313 121.806L135.304 121.845L135.295 121.883L140.169 123ZM138.169 128.12L134.406 124.827L138.169 128.12ZM130.169 126.2L125.487 127.956L125.506 128.007L125.526 128.057L130.169 126.2ZM131.929 96.2L136.696 97.7076L136.7 97.6948L136.704 97.682L131.929 96.2ZM134.249 92.84L136.974 97.0322L136.998 97.0164L137.022 97.0003L134.249 92.84ZM140.569 99.4L135.739 98.1063L135.728 98.1467L135.718 98.1873L140.569 99.4ZM138.489 110.92L133.509 110.467L143.157 112.711L138.489 110.92ZM144.409 99.72L140.427 96.6964L144.409 99.72ZM160.009 93.08L156.26 96.3881L156.363 96.5052L156.473 96.6155L160.009 93.08ZM160.409 102.68L155.513 101.664L154.264 107.68H160.409V102.68ZM161.129 107.68C161.096 107.68 160.953 107.671 160.764 107.589C160.575 107.508 160.468 107.408 160.441 107.38L167.736 100.54C165.988 98.6751 163.679 97.68 161.129 97.68V107.68ZM160.669 107.608C160.617 107.559 160.516 107.44 160.441 107.26C160.367 107.085 160.369 106.976 160.369 107H170.369C170.369 104.467 169.424 102.108 167.508 100.312L160.669 107.608ZM160.369 107C160.369 106.923 160.386 107.035 160.246 107.383L169.531 111.097C170.032 109.845 170.369 108.463 170.369 107H160.369ZM160.299 107.255C159.73 108.573 158.969 109.599 158.024 110.413L164.553 117.987C166.702 116.135 168.341 113.853 169.478 111.225L160.299 107.255ZM158.024 110.413C157.293 111.043 156.721 111.2 156.169 111.2V121.2C159.35 121.2 162.191 120.024 164.553 117.987L158.024 110.413ZM156.169 111.2C156.094 111.2 156.051 111.193 156.033 111.19C156.023 111.188 156.018 111.187 156.015 111.186C156.013 111.185 156.012 111.185 156.012 111.185C156.011 111.184 156.01 111.184 156.006 111.182C156.003 111.18 155.996 111.176 155.985 111.169C155.965 111.155 155.924 111.124 155.864 111.064L148.793 118.136C150.787 120.129 153.334 121.2 156.169 121.2V111.2ZM155.954 111.156C155.951 111.153 155.934 111.141 155.905 111.06C155.871 110.963 155.809 110.725 155.809 110.28H145.809C145.809 113.061 146.613 115.843 148.704 118.044L155.954 111.156ZM155.809 110.28C155.809 109.44 155.853 108.499 155.948 107.453L145.989 106.547C145.871 107.848 145.809 109.094 145.809 110.28H155.809ZM155.93 107.62C156.034 106.793 156.129 105.914 156.129 105.24H146.129C146.129 105.173 146.132 105.222 146.109 105.467C146.089 105.686 146.057 105.986 146.007 106.38L155.93 107.62ZM156.129 105.24C156.129 104.043 155.826 102.226 154.344 100.744L147.273 107.816C146.218 106.76 146.129 105.584 146.129 105.24H156.129ZM154.809 101.28C153.704 99.8076 152.009 98.96 150.169 98.96V108.96C149.618 108.96 148.959 108.845 148.293 108.512C147.627 108.179 147.139 107.72 146.809 107.28L154.809 101.28ZM150.169 98.96C147.891 98.96 146.265 100.242 145.515 100.914C144.607 101.726 143.783 102.749 143.044 103.797L151.214 109.563C151.47 109.2 151.686 108.921 151.861 108.713C152.04 108.501 152.147 108.398 152.183 108.366C152.229 108.325 152.116 108.437 151.849 108.575C151.582 108.712 150.995 108.96 150.169 108.96V98.96ZM143.085 103.739C141.518 105.894 140.07 108.594 138.706 111.72L147.871 115.72C149.067 112.979 150.18 110.986 151.172 109.621L143.085 103.739ZM138.706 111.72C137.307 114.926 136.178 118.29 135.313 121.806L145.024 124.194C145.759 121.204 146.71 118.381 147.871 115.72L138.706 111.72ZM135.295 121.883C135.035 123.017 134.786 123.83 134.571 124.381C134.335 124.985 134.236 125.021 134.406 124.827L141.932 131.413C143.584 129.524 144.454 126.684 145.042 124.117L135.295 121.883ZM134.406 124.827C134.534 124.681 134.672 124.567 134.798 124.485C134.921 124.405 135.012 124.369 135.046 124.358C135.078 124.347 135.055 124.358 134.959 124.372C134.863 124.386 134.71 124.4 134.489 124.4V134.4C136.903 134.4 139.84 133.802 141.932 131.413L134.406 124.827ZM134.489 124.4C134.423 124.4 134.454 124.392 134.549 124.421C134.651 124.452 134.764 124.508 134.865 124.582C134.962 124.654 134.996 124.706 134.983 124.687C134.966 124.664 134.899 124.563 134.811 124.343L125.526 128.057C126.202 129.745 127.265 131.397 128.913 132.618C130.605 133.871 132.55 134.4 134.489 134.4V124.4ZM134.85 124.444C134.384 123.201 133.969 120.552 133.969 115.96H123.969C123.969 120.755 124.353 124.932 125.487 127.956L134.85 124.444ZM133.969 115.96C133.969 109.508 134.886 103.432 136.696 97.7076L127.161 94.6924C125.025 101.448 123.969 108.546 123.969 115.96H133.969ZM136.704 97.682C136.822 97.3035 136.933 97.1137 136.983 97.041C137.025 96.9798 137.025 96.9991 136.974 97.0322L131.524 88.6478C129.236 90.1348 127.883 92.3673 127.153 94.718L136.704 97.682ZM137.022 97.0003C137.021 97.001 137.467 96.72 138.889 96.72V86.72C136.364 86.72 133.716 87.1857 131.475 88.6797L137.022 97.0003ZM138.889 96.72C139.053 96.72 139.176 96.7252 139.262 96.7315C139.349 96.738 139.382 96.7443 139.37 96.7421C139.36 96.7404 139.274 96.7249 139.135 96.6776C138.999 96.631 138.762 96.5372 138.479 96.36L143.779 87.88C142.063 86.8076 140.055 86.72 138.889 86.72V96.72ZM138.479 96.36C137.737 95.8961 137.255 95.2447 137.001 94.6403C136.774 94.1018 136.769 93.7087 136.769 93.64H146.769C146.769 92.0673 146.294 89.452 143.779 87.88L138.479 96.36ZM136.769 93.64C136.769 93.5058 136.77 93.7574 136.574 94.7002C136.401 95.5318 136.127 96.6585 135.739 98.1063L145.398 100.694C145.811 99.1548 146.137 97.8282 146.364 96.7398C146.567 95.7626 146.769 94.6275 146.769 93.64H136.769ZM135.718 98.1873C135.172 100.373 134.726 102.32 134.386 104.019L144.192 105.981C144.492 104.48 144.899 102.694 145.419 100.613L135.718 98.1873ZM134.386 104.019C134.019 105.852 133.732 108.014 133.509 110.467L143.468 111.373C143.672 109.133 143.918 107.348 144.192 105.981L134.386 104.019ZM143.157 112.711C144.804 108.419 146.571 105.14 148.391 102.744L140.427 96.6964C137.873 100.06 135.694 104.247 133.821 109.129L143.157 112.711ZM148.391 102.744C150.362 100.148 152.035 98.6418 153.349 97.8668L148.269 89.2532C145.423 90.9315 142.829 93.5321 140.427 96.6964L148.391 102.744ZM153.349 97.8668C154.962 96.9154 155.971 96.72 156.489 96.72V86.72C153.593 86.72 150.816 87.7512 148.269 89.2532L153.349 97.8668ZM156.489 96.72C156.783 96.72 156.83 96.7639 156.727 96.724C156.673 96.7032 156.593 96.665 156.501 96.602C156.409 96.5384 156.327 96.4644 156.26 96.3881L163.758 89.7719C161.758 87.5054 159.042 86.72 156.489 86.72V96.72ZM156.473 96.6155C156.389 96.531 156.325 96.4455 156.281 96.3725C156.239 96.3012 156.224 96.2583 156.225 96.2611C156.231 96.2768 156.289 96.4684 156.289 96.92H166.289C166.289 94.4426 165.666 91.6662 163.544 89.5445L156.473 96.6155ZM156.289 96.92C156.289 97.3411 156.114 98.7706 155.513 101.664L165.304 103.696C165.877 100.936 166.289 98.5256 166.289 96.92H156.289ZM160.409 107.68H161.129V97.68H160.409V107.68ZM205.698 112.12L201.379 114.639L201.455 114.769L201.538 114.894L205.698 112.12ZM204.818 119.72L201.034 116.452L200.984 116.51L200.935 116.57L204.818 119.72ZM197.298 126.68L194.525 122.52L197.298 126.68ZM171.858 99.32L176.847 99.6526L177.203 94.32H171.858V99.32ZM165.458 98.44L161.758 101.803L161.838 101.891L161.923 101.976L165.458 98.44ZM172.818 91.16V96.16H177.105L177.759 91.9237L172.818 91.16ZM176.978 75.08L172.311 73.2851L176.978 75.08ZM183.698 63.48L180.029 60.083L180.012 60.1014L179.995 60.12L183.698 63.48ZM197.538 62.12L201.733 59.399L201.733 59.399L197.538 62.12ZM189.058 91.16L185.745 87.415L175.86 96.16H189.058V91.16ZM181.618 99.32V94.32H176.814L176.622 99.1202L181.618 99.32ZM183.378 117.24L179.037 119.721L179.059 119.759L179.082 119.797L183.378 117.24ZM195.698 118.52L198.792 122.447H198.792L195.698 118.52ZM201.938 112.28L205.719 115.552L205.727 115.543L205.734 115.534L201.938 112.28ZM187.378 69.88L182.906 67.6439L182.894 67.6682L182.882 67.6927L187.378 69.88ZM184.578 78.2L179.732 76.9703L179.725 76.9961L179.719 77.022L184.578 78.2ZM182.418 89.96L177.464 89.2872L175.684 102.39L185.688 93.7427L182.418 89.96ZM189.458 80.84L184.931 78.7178L184.923 78.7335L184.916 78.7493L189.458 80.84ZM204.098 116.16C203.645 116.16 203.043 116.046 202.446 115.687C201.864 115.339 201.536 114.907 201.379 114.639L210.017 109.601C208.823 107.553 206.714 106.16 204.098 106.16V116.16ZM201.538 114.894C201.375 114.649 201.326 114.468 201.319 114.438C201.313 114.414 201.338 114.507 201.338 114.76H211.338C211.338 113.08 211.029 111.103 209.858 109.346L201.538 114.894ZM201.338 114.76C201.338 115.441 201.256 115.879 201.178 116.135C201.104 116.375 201.037 116.448 201.034 116.452L208.602 122.988C210.652 120.615 211.338 117.642 211.338 114.76H201.338ZM200.935 116.57C198.923 119.05 196.782 121.015 194.525 122.52L200.072 130.84C203.255 128.718 206.126 126.044 208.701 122.87L200.935 116.57ZM194.525 122.52C192.69 123.743 190.55 124.4 187.938 124.4V134.4C192.366 134.4 196.467 133.244 200.072 130.84L194.525 122.52ZM187.938 124.4C183.822 124.4 181.397 123.047 179.773 120.763C177.927 118.166 176.618 113.653 176.618 106.44H166.618C166.618 114.534 168.029 121.501 171.623 126.557C175.439 131.926 181.174 134.4 187.938 134.4V124.4ZM176.618 106.44C176.618 104.207 176.694 101.945 176.847 99.6526L166.869 98.9874C166.702 101.495 166.618 103.98 166.618 106.44H176.618ZM171.858 94.32H168.738V104.32H171.858V94.32ZM168.738 94.32C168.488 94.32 168.303 94.3083 168.174 94.2944C168.045 94.2803 167.997 94.2663 168.014 94.2708C168.018 94.272 168.481 94.3918 168.994 94.9045L161.923 101.976C164.006 104.059 166.9 104.32 168.738 104.32V94.32ZM169.158 95.0766C169.512 95.4659 169.634 95.8164 169.666 95.9264C169.693 96.0224 169.658 95.9539 169.658 95.64H159.658C159.658 97.4413 160.004 99.8739 161.758 101.803L169.158 95.0766ZM169.658 95.64C169.658 95.2118 169.703 95.0109 169.713 94.9737C169.72 94.9463 169.672 95.1425 169.456 95.412C169.221 95.7042 168.91 95.9295 168.599 96.0584C168.319 96.1747 168.168 96.16 168.258 96.16V86.16C165.962 86.16 163.444 86.9282 161.661 89.148C160.045 91.159 159.658 93.6085 159.658 95.64H169.658ZM168.258 96.16H172.818V86.16H168.258V96.16ZM177.759 91.9237C178.619 86.361 179.923 81.3523 181.645 76.8749L172.311 73.2851C170.3 78.5143 168.83 84.2257 167.877 90.3963L177.759 91.9237ZM181.645 76.8749C183.36 72.4153 185.317 69.1367 187.401 66.8399L179.995 60.12C176.853 63.5833 174.33 68.038 172.311 73.2851L181.645 76.8749ZM187.367 66.877C189.379 64.7043 190.989 64.16 192.258 64.16V54.16C187.448 54.16 183.351 56.4956 180.029 60.083L187.367 66.877ZM192.258 64.16C192.618 64.16 192.76 64.2315 192.813 64.2614C192.876 64.2969 193.072 64.4219 193.343 64.841L201.733 59.399C199.586 56.0899 196.292 54.16 192.258 54.16V64.16ZM193.343 64.841C193.973 65.8112 194.458 67.2801 194.458 69.56H204.458C204.458 65.8665 203.664 62.3754 201.733 59.399L193.343 64.841ZM194.458 69.56C194.458 76.2135 191.749 82.104 185.745 87.415L192.371 94.905C200.234 87.9494 204.458 79.4398 204.458 69.56H194.458ZM189.058 96.16H198.018V86.16H189.058V96.16ZM198.018 96.16C198.104 96.16 197.954 96.1722 197.662 96.0834C197.351 95.9885 196.828 95.761 196.323 95.2555L203.394 88.1845C201.645 86.4362 199.415 86.16 198.018 86.16V96.16ZM196.323 95.2555C195.706 94.6394 195.506 94.0266 195.45 93.8199C195.393 93.6087 195.418 93.5677 195.418 93.8H205.418C205.418 92.5402 205.261 90.052 203.394 88.1845L196.323 95.2555ZM195.418 93.8C195.418 94.026 195.377 93.9802 195.464 93.8193C195.557 93.6488 195.651 93.6122 195.552 93.6727C195.207 93.8837 194.045 94.32 191.378 94.32V104.32C194.738 104.32 198.096 103.836 200.764 102.207C203.833 100.333 205.418 97.2927 205.418 93.8H195.418ZM191.378 94.32H181.618V104.32H191.378V94.32ZM176.622 99.1202C176.515 101.81 176.458 103.968 176.458 105.56H186.458C186.458 104.166 186.508 102.163 186.614 99.5198L176.622 99.1202ZM176.458 105.56C176.458 111.19 177.055 116.253 179.037 119.721L187.719 114.759C187.141 113.747 186.458 111.023 186.458 105.56H176.458ZM179.082 119.797C181.405 123.7 185.209 125.6 189.618 125.6V115.6C188.374 115.6 188.018 115.26 187.675 114.683L179.082 119.797ZM189.618 125.6C193.005 125.6 196.128 124.546 198.792 122.447L192.604 114.593C191.748 115.267 190.817 115.6 189.618 115.6V125.6ZM198.792 122.447C200.908 120.781 203.225 118.434 205.719 115.552L198.157 109.008C195.852 111.672 194.008 113.486 192.604 114.593L198.792 122.447ZM205.734 115.534C205.723 115.547 205.576 115.715 205.26 115.879C204.919 116.056 204.511 116.16 204.098 116.16V106.16C201.51 106.16 199.495 107.448 198.142 109.026L205.734 115.534ZM190.098 61.84C187.544 61.84 185.861 63.4066 185.092 64.266C184.211 65.2506 183.498 66.4595 182.906 67.6439L191.85 72.1161C192.047 71.7217 192.214 71.4289 192.346 71.22C192.481 71.0048 192.551 70.9265 192.544 70.934C192.538 70.941 192.498 70.9855 192.421 71.0516C192.345 71.1173 192.216 71.2193 192.031 71.3293C191.656 71.5517 190.989 71.84 190.098 71.84V61.84ZM182.882 67.6927C181.706 70.1092 180.674 73.257 179.732 76.9703L189.425 79.4297C190.296 75.9964 191.13 73.5974 191.874 72.0673L182.882 67.6927ZM179.719 77.022C178.818 80.7381 178.069 84.8302 177.464 89.2872L187.373 90.6328C187.941 86.4498 188.632 82.7019 189.437 79.378L179.719 77.022ZM185.688 93.7427C189.307 90.6142 192.12 87.0154 194 82.9307L184.916 78.7493C183.703 81.3846 181.822 83.8658 179.148 86.1773L185.688 93.7427ZM193.985 82.9622C195.791 79.1103 196.858 75.2808 196.858 71.56H186.858C186.858 73.3859 186.325 75.743 184.931 78.7178L193.985 82.9622ZM196.858 71.56C196.858 69.8176 196.715 67.9134 196.103 66.2731C195.785 65.4207 195.227 64.3246 194.2 63.4073C193.07 62.3967 191.629 61.84 190.098 61.84V71.84C189.154 71.84 188.226 71.48 187.536 70.8627C186.95 70.3387 186.758 69.8326 186.733 69.7669C186.701 69.6796 186.743 69.7619 186.786 70.1117C186.828 70.444 186.858 70.918 186.858 71.56H196.858ZM242.224 105.48L237.822 107.85V107.851L242.224 105.48ZM240.464 112.68L238.982 107.905L238.897 107.931L238.813 107.961L240.464 112.68ZM229.904 114.6L229.696 109.604L225.872 109.764L225.028 113.497L229.904 114.6ZM223.904 125.4L227.234 129.13L227.253 129.113L227.271 129.097L223.904 125.4ZM205.504 127.08L202.663 131.194L202.686 131.21L202.709 131.225L205.504 127.08ZM200.944 101.8L205.432 104.006L205.439 103.991L205.446 103.976L200.944 101.8ZM207.344 94.36L210.061 98.5578L210.089 98.5392L210.118 98.5202L207.344 94.36ZM226.144 95.88L222.368 99.1574L222.401 99.1954L222.435 99.2327L226.144 95.88ZM230.544 106.2L225.571 106.717L226.068 111.496L230.863 111.19L230.544 106.2ZM239.504 104.6L238.292 99.7493L238.265 99.7559L238.239 99.7627L239.504 104.6ZM218.784 118.84L215.11 115.449L215.074 115.487L215.039 115.527L218.784 118.84ZM221.344 112.84L226.279 113.646L226.794 110.492L224.149 108.7L221.344 112.84ZM217.504 108.44L212.98 110.569L213.006 110.623L213.032 110.676L217.504 108.44ZM216.464 100.12L221.379 101.041L222.489 95.12H216.464V100.12ZM210.704 103.24L206.593 100.394L206.586 100.405L206.578 100.417L210.704 103.24ZM210.304 118.6L206.255 121.533L206.287 121.578L206.321 121.622L210.304 118.6ZM240.624 109.44C240.094 109.44 239.437 109.293 238.819 108.892C238.235 108.512 237.94 108.069 237.822 107.85L246.627 103.11C245.525 101.064 243.442 99.44 240.624 99.44V109.44ZM237.822 107.851C237.754 107.724 237.745 107.658 237.753 107.698C237.762 107.74 237.784 107.873 237.784 108.12H247.784C247.784 106.506 247.507 104.744 246.627 103.109L237.822 107.851ZM237.784 108.12C237.784 108.517 237.754 108.772 237.727 108.914C237.7 109.056 237.686 109.034 237.748 108.913C237.816 108.779 237.96 108.558 238.215 108.338C238.474 108.114 238.752 107.976 238.982 107.905L241.946 117.455C244.084 116.792 245.698 115.339 246.661 113.447C247.539 111.721 247.784 109.826 247.784 108.12H237.784ZM238.813 107.961C236.135 108.898 233.109 109.462 229.696 109.604L230.113 119.596C234.38 119.418 238.394 118.702 242.116 117.399L238.813 107.961ZM225.028 113.497C224.208 117.12 222.666 119.765 220.538 121.703L227.271 129.097C231.116 125.595 233.574 121.04 234.781 115.703L225.028 113.497ZM220.574 121.67C218.447 123.57 216.228 124.4 213.744 124.4V134.4C218.834 134.4 223.389 132.563 227.234 129.13L220.574 121.67ZM213.744 124.4C211.38 124.4 209.644 123.841 208.3 122.935L202.709 131.225C205.952 133.413 209.709 134.4 213.744 134.4V124.4ZM208.345 122.966C206.872 121.948 205.742 120.608 204.93 118.837L195.839 123.003C197.374 126.352 199.657 129.118 202.663 131.194L208.345 122.966ZM204.93 118.837C204.074 116.97 203.624 114.912 203.624 112.6H193.624C193.624 116.261 194.348 119.75 195.839 123.003L204.93 118.837ZM203.624 112.6C203.624 109.192 204.271 106.366 205.432 104.006L196.457 99.5944C194.524 103.527 193.624 107.901 193.624 112.6H203.624ZM205.446 103.976C206.634 101.518 208.183 99.7725 210.061 98.5578L204.628 90.1621C201.065 92.4675 198.348 95.682 196.443 99.6242L205.446 103.976ZM210.118 98.5202C212.007 97.2612 214.053 96.64 216.384 96.64V86.64C212.103 86.64 208.122 87.8322 204.571 90.1997L210.118 98.5202ZM216.384 96.64C219.125 96.64 220.95 97.5234 222.368 99.1574L229.92 92.6026C226.432 88.5833 221.751 86.64 216.384 86.64V96.64ZM222.435 99.2327C224.156 101.137 225.242 103.55 225.571 106.717L235.518 105.683C234.993 100.637 233.146 96.1701 229.854 92.5273L222.435 99.2327ZM230.863 111.19C233.792 111.003 237.112 110.394 240.77 109.437L238.239 99.7627C234.963 100.62 232.31 101.077 230.226 101.21L230.863 111.19ZM240.717 109.451C240.79 109.432 240.82 109.429 240.811 109.43C240.806 109.43 240.788 109.433 240.758 109.435C240.728 109.438 240.683 109.44 240.624 109.44V99.44C239.775 99.44 238.979 99.5776 238.292 99.7493L240.717 109.451ZM214.384 125.92C217.655 125.92 220.444 124.51 222.529 122.153L215.039 115.527C214.812 115.784 214.668 115.86 214.627 115.88C214.597 115.894 214.538 115.92 214.384 115.92V125.92ZM222.458 122.231C224.621 119.889 225.756 116.851 226.279 113.646L216.41 112.034C216.08 114.056 215.508 115.018 215.11 115.449L222.458 122.231ZM224.149 108.7C223.217 108.069 222.506 107.262 221.977 106.204L213.032 110.676C214.316 113.244 216.166 115.371 218.54 116.98L224.149 108.7ZM222.028 106.311C221.492 105.171 221.224 103.979 221.224 102.68H211.224C211.224 105.434 211.81 108.082 212.98 110.569L222.028 106.311ZM221.224 102.68C221.224 102.141 221.275 101.596 221.379 101.041L211.55 99.1986C211.334 100.35 211.224 101.512 211.224 102.68H221.224ZM216.464 95.12H216.064V105.12H216.464V95.12ZM216.064 95.12C211.97 95.12 208.769 97.2521 206.593 100.394L214.815 106.086C215.52 105.068 215.893 105.12 216.064 105.12V95.12ZM206.578 100.417C204.397 103.604 203.624 107.63 203.624 111.88H213.624C213.624 108.664 214.239 106.929 214.831 106.063L206.578 100.417ZM203.624 111.88C203.624 115.337 204.266 118.786 206.255 121.533L214.354 115.667C214.103 115.321 213.624 114.29 213.624 111.88H203.624ZM206.321 121.622C208.173 124.063 210.88 125.92 214.384 125.92V115.92C214.419 115.92 214.477 115.925 214.545 115.943C214.613 115.961 214.658 115.983 214.676 115.994C214.708 116.012 214.561 115.938 214.288 115.578L206.321 121.622ZM278.478 112.36L274.076 114.731L274.187 114.938L274.318 115.133L278.478 112.36ZM278.558 117.72L282.96 120.091V120.09L278.558 117.72ZM276.798 119.56L274.025 115.4L274.013 115.407L274.002 115.415L276.798 119.56ZM266.718 126.44L269.507 130.59L269.546 130.564L269.585 130.536L266.718 126.44ZM261.598 129.88L258.81 125.73L257.061 126.905L256.68 128.977L261.598 129.88ZM253.598 155.88L249.172 153.554L249.16 153.577L249.149 153.599L253.598 155.88ZM234.478 162.84L238.014 159.304L237.986 159.276L237.957 159.249L234.478 162.84ZM236.398 144.04L232.285 141.197L232.277 141.208L232.269 141.22L236.398 144.04ZM253.198 128.04L256.255 131.996L257.836 130.775L258.14 128.8L253.198 128.04ZM253.678 124.92L258.62 125.68L249.447 122.256L253.678 124.92ZM250.078 128.28L252.38 132.719L252.41 132.703L252.439 132.687L250.078 128.28ZM237.838 125.8L241.7 122.624L237.838 125.8ZM237.838 104.28L242.272 106.591L242.279 106.578L242.285 106.565L237.838 104.28ZM245.678 95.08L248.559 99.1667L248.565 99.1621L248.572 99.1575L245.678 95.08ZM258.478 92.28L254.531 95.3497L254.722 95.5954L254.943 95.8155L258.478 92.28ZM259.518 94.68L254.642 95.7881L255.733 100.586L260.548 99.5727L259.518 94.68ZM265.838 95L262.715 98.9043L262.926 99.0732L263.154 99.2183L265.838 95ZM266.638 98.84L261.688 98.1329L261.684 98.1665L261.679 98.2001L266.638 98.84ZM264.638 111.4L259.706 110.578V110.578L264.638 111.4ZM263.918 115.64L258.991 114.79L258.979 114.862L258.968 114.933L263.918 115.64ZM263.198 120.44L258.258 119.668L256.308 132.148L266.271 124.384L263.198 120.44ZM275.038 111.96L272.418 107.702L272.368 107.732L272.319 107.764L275.038 111.96ZM252.158 119.08L256.158 122.08L252.158 119.08ZM254.558 112.68L249.643 111.76L249.637 111.794L249.631 111.827L254.558 112.68ZM257.118 99L262.033 99.9197L263.168 93.8509L256.996 94.0015L257.118 99ZM251.038 101.56L254.292 105.356L254.323 105.33L254.353 105.303L251.038 101.56ZM246.558 107.96L251.168 109.896L246.558 107.96ZM245.838 120.12L241.934 123.243L241.995 123.32L242.06 123.395L245.838 120.12ZM246.478 152.84L242.066 150.487L242.051 150.516L242.036 150.545L246.478 152.84ZM251.358 137.56L256.24 138.641L259.478 124.015L248.104 133.764L251.358 137.56ZM242.478 147.08L246.687 149.78L242.478 147.08ZM240.238 156.76L235.849 159.154L235.929 159.302L236.02 159.444L240.238 156.76ZM276.878 116.32C276.348 116.32 275.69 116.173 275.073 115.772C274.488 115.392 274.193 114.949 274.076 114.731L282.88 109.989C281.779 107.944 279.696 106.32 276.878 106.32V116.32ZM274.318 115.133C274.188 114.939 274.135 114.779 274.117 114.709C274.101 114.647 274.118 114.679 274.118 114.84H284.118C284.118 113.148 283.762 111.272 282.638 109.587L274.318 115.133ZM274.118 114.84C274.118 115.21 274.089 115.427 274.07 115.526C274.051 115.625 274.054 115.539 274.156 115.35L282.96 120.09C283.886 118.373 284.118 116.476 284.118 114.84H274.118ZM274.156 115.349C274.198 115.271 274.232 115.237 274.225 115.244C274.216 115.254 274.159 115.31 274.025 115.4L279.572 123.72C280.904 122.832 282.122 121.647 282.96 120.091L274.156 115.349ZM274.002 115.415C269.412 118.51 266.022 120.824 263.851 122.344L269.585 130.536C271.681 129.069 275.011 126.796 279.594 123.705L274.002 115.415ZM263.93 122.29L258.81 125.73L264.387 134.03L269.507 130.59L263.93 122.29ZM256.68 128.977C254.699 139.773 252.149 147.889 249.172 153.554L258.024 158.206C261.661 151.285 264.444 142.067 266.516 130.783L256.68 128.977ZM249.149 153.599C246.353 159.053 243.573 160.4 241.118 160.4V170.4C248.797 170.4 254.336 165.401 258.048 158.161L249.149 153.599ZM241.118 160.4C239.541 160.4 238.66 159.951 238.014 159.304L230.943 166.376C233.709 169.142 237.256 170.4 241.118 170.4V160.4ZM237.957 159.249C237.366 158.676 236.918 157.86 236.918 156.28H226.918C226.918 160.14 228.177 163.697 230.999 166.431L237.957 159.249ZM236.918 156.28C236.918 153.827 237.889 150.722 240.527 146.86L232.269 141.22C228.933 146.105 226.918 151.159 226.918 156.28H236.918ZM240.511 146.883C243.042 143.222 248.133 138.273 256.255 131.996L250.141 124.084C241.837 130.501 235.728 136.218 232.285 141.197L240.511 146.883ZM258.14 128.8L258.62 125.68L248.736 124.16L248.256 127.28L258.14 128.8ZM249.447 122.256C249 122.966 248.443 123.484 247.717 123.873L252.439 132.687C254.7 131.476 256.543 129.754 257.909 127.584L249.447 122.256ZM247.777 123.841C246.957 124.266 246.301 124.4 245.758 124.4V134.4C248.096 134.4 250.319 133.787 252.38 132.719L247.777 123.841ZM245.758 124.4C243.837 124.4 242.656 123.787 241.7 122.624L233.976 128.976C236.967 132.613 241.066 134.4 245.758 134.4V124.4ZM241.7 122.624C240.633 121.327 239.878 119.396 239.878 116.36H229.878C229.878 121.111 231.096 125.473 233.976 128.976L241.7 122.624ZM239.878 116.36C239.878 112.899 240.67 109.664 242.272 106.591L233.404 101.969C231.059 106.469 229.878 111.288 229.878 116.36H239.878ZM242.285 106.565C243.922 103.381 246.02 100.956 248.559 99.1667L242.797 90.9933C238.829 93.7905 235.701 97.4987 233.391 101.995L242.285 106.565ZM248.572 99.1575C251.123 97.3469 253.62 96.56 256.158 96.56V86.56C251.336 86.56 246.846 88.1197 242.784 91.0025L248.572 99.1575ZM256.158 96.56C256.447 96.56 256.392 96.5947 256.136 96.5153C255.865 96.4312 255.15 96.1456 254.531 95.3497L262.425 89.2103C260.516 86.7557 257.557 86.56 256.158 86.56V96.56ZM254.943 95.8155C254.74 95.6129 254.617 95.437 254.553 95.3365C254.49 95.235 254.466 95.1776 254.47 95.188C254.474 95.1968 254.496 95.2483 254.528 95.354C254.561 95.4586 254.6 95.6013 254.642 95.7881L264.394 93.5719C264.089 92.2315 263.497 90.2282 262.014 88.7445L254.943 95.8155ZM260.548 99.5727C261.142 99.4477 261.958 99.36 263.038 99.36V89.36C261.452 89.36 259.921 89.4857 258.488 89.7872L260.548 99.5727ZM263.038 99.36C263.241 99.36 263.391 99.3682 263.495 99.378C263.6 99.3879 263.639 99.3976 263.624 99.3943C263.611 99.3913 263.515 99.3687 263.363 99.3027C263.211 99.2362 262.977 99.1144 262.715 98.9043L268.962 91.0957C267.021 89.5433 264.585 89.36 263.038 89.36V99.36ZM263.154 99.2183C262.374 98.7223 261.984 98.0581 261.823 97.6333C261.685 97.2699 261.718 97.1057 261.718 97.32H271.718C271.718 95.6291 271.33 92.5683 268.523 90.7817L263.154 99.2183ZM261.718 97.32C261.718 97.5738 261.713 97.7705 261.705 97.9172C261.697 98.0689 261.688 98.1339 261.688 98.1329L271.588 99.5471C271.69 98.8338 271.718 98.058 271.718 97.32H261.718ZM261.679 98.2001C261.48 99.7411 260.832 103.823 259.706 110.578L269.57 112.222C270.684 105.537 271.369 101.246 271.597 99.4799L261.679 98.2001ZM259.706 110.578C259.495 111.847 259.256 113.251 258.991 114.79L268.845 116.49C269.113 114.936 269.355 113.513 269.57 112.222L259.706 110.578ZM258.968 114.933C258.759 116.402 258.522 117.98 258.258 119.668L268.138 121.212C268.408 119.487 268.651 117.865 268.868 116.347L258.968 114.933ZM266.271 124.384C270.281 121.26 274.109 118.52 277.757 116.156L272.319 107.764C268.394 110.307 264.329 113.22 260.125 116.496L266.271 124.384ZM277.659 116.218C277.771 116.149 277.769 116.165 277.661 116.202C277.55 116.241 277.277 116.32 276.878 116.32V106.32C275.054 106.32 273.515 107.026 272.418 107.702L277.659 116.218ZM248.638 126.32C252.126 126.32 254.602 124.155 256.158 122.08L248.158 116.08C248.007 116.281 247.891 116.408 247.814 116.483C247.738 116.558 247.716 116.566 247.754 116.542C247.794 116.516 247.898 116.457 248.063 116.406C248.232 116.353 248.429 116.32 248.638 116.32V126.32ZM256.158 122.08C257.932 119.714 258.933 116.723 259.485 113.533L249.631 111.827C249.224 114.184 248.624 115.459 248.158 116.08L256.158 122.08ZM259.473 113.6L262.033 99.9197L252.203 98.0803L249.643 111.76L259.473 113.6ZM256.996 94.0015C253.466 94.0876 250.342 95.4978 247.723 97.8171L254.353 105.303C255.468 104.316 256.397 104.019 257.24 103.999L256.996 94.0015ZM247.784 97.7637C245.231 99.9519 243.316 102.766 241.948 106.024L251.168 109.896C252.04 107.821 253.112 106.368 254.292 105.356L247.784 97.7637ZM241.948 106.024C240.562 109.324 239.878 112.811 239.878 116.44H249.878C249.878 114.096 250.314 111.93 251.168 109.896L241.948 106.024ZM239.878 116.44C239.878 118.581 240.265 121.157 241.934 123.243L249.742 116.997C249.952 117.258 249.98 117.429 249.956 117.338C249.931 117.24 249.878 116.962 249.878 116.44H239.878ZM242.06 123.395C243.812 125.417 246.191 126.32 248.638 126.32V116.32C248.624 116.32 248.783 116.319 249.028 116.424C249.286 116.535 249.49 116.699 249.617 116.845L242.06 123.395ZM241.998 162.64C244.721 162.64 246.665 161.04 247.773 159.852C248.968 158.572 250 156.916 250.92 155.135L242.036 150.545C241.303 151.964 240.762 152.708 240.463 153.028C240.324 153.177 240.352 153.109 240.565 152.989C240.8 152.856 241.299 152.64 241.998 152.64V162.64ZM250.89 155.193C252.929 151.37 254.671 145.729 256.24 138.641L246.476 136.479C244.952 143.365 243.441 147.91 242.066 150.487L250.89 155.193ZM248.104 133.764C243.824 137.433 240.456 140.971 238.27 144.38L246.687 149.78C248.127 147.535 250.679 144.727 254.612 141.356L248.104 133.764ZM238.27 144.38C236.212 147.588 234.758 151.027 234.758 154.52H244.758C244.758 153.747 245.118 152.225 246.687 149.78L238.27 144.38ZM234.758 154.52C234.758 155.978 235.011 157.618 235.849 159.154L244.628 154.366C244.728 154.55 244.76 154.681 244.767 154.712C244.773 154.74 244.758 154.685 244.758 154.52H234.758ZM236.02 159.444C237.462 161.711 239.791 162.64 241.998 162.64V152.64C242.206 152.64 242.657 152.679 243.194 152.948C243.761 153.231 244.187 153.652 244.456 154.076L236.02 159.444ZM274.7 126.2L270.018 127.956L270.037 128.007L270.058 128.057L274.7 126.2ZM276.46 96.2L281.227 97.7076L281.231 97.6948L281.235 97.682L276.46 96.2ZM278.78 92.84L281.505 97.0322L281.529 97.0164L281.553 97.0003L278.78 92.84ZM285.1 99.4L280.27 98.1063L280.259 98.1467L280.249 98.1873L285.1 99.4ZM283.02 110.92L278.041 110.467L287.688 112.711L283.02 110.92ZM288.94 99.72L284.958 96.6964L288.94 99.72ZM295.34 93.56L292.848 89.2255L292.824 89.2392L292.8 89.2532L295.34 93.56ZM305.66 101.96L310.563 102.941L310.572 102.893L310.581 102.846L305.66 101.96ZM312.78 105.24L309.244 101.704V101.704L312.78 105.24ZM316.54 105.16L312.221 107.679L312.348 107.897L312.496 108.101L316.54 105.16ZM315.58 112.2L319.177 115.673L319.189 115.661L319.201 115.648L315.58 112.2ZM310.3 116.2L312.678 120.599L312.698 120.587L312.718 120.576L310.3 116.2ZM297.5 115.64L293.964 119.176L293.997 119.208L294.029 119.239L297.5 115.64ZM295.58 107.4L300.483 108.381L300.531 108.141L300.555 107.898L295.58 107.4ZM291.66 106.68L287.632 103.718L287.624 103.729L287.616 103.739L291.66 106.68ZM287.82 113.72L283.237 111.72L287.82 113.72ZM284.7 123L279.845 121.806L279.838 121.833L279.832 121.861L284.7 123ZM282.62 128.12L278.871 124.812L278.864 124.82L278.857 124.827L282.62 128.12ZM279.02 124.4C278.954 124.4 278.985 124.392 279.08 124.421C279.182 124.452 279.295 124.508 279.396 124.582C279.493 124.654 279.527 124.706 279.514 124.687C279.497 124.664 279.43 124.563 279.342 124.343L270.058 128.057C270.733 129.745 271.796 131.397 273.444 132.618C275.136 133.871 277.082 134.4 279.02 134.4V124.4ZM279.382 124.444C278.915 123.201 278.5 120.552 278.5 115.96H268.5C268.5 120.755 268.885 124.932 270.018 127.956L279.382 124.444ZM278.5 115.96C278.5 109.508 279.417 103.432 281.227 97.7076L271.693 94.6924C269.556 101.448 268.5 108.546 268.5 115.96H278.5ZM281.235 97.682C281.353 97.3035 281.464 97.1137 281.514 97.041C281.557 96.9798 281.556 96.9991 281.505 97.0322L276.055 88.6478C273.767 90.1348 272.414 92.3673 271.685 94.718L281.235 97.682ZM281.553 97.0003C281.552 97.001 281.998 96.72 283.42 96.72V86.72C280.895 86.72 278.248 87.1857 276.007 88.6797L281.553 97.0003ZM283.42 96.72C283.585 96.72 283.707 96.7252 283.793 96.7315C283.881 96.738 283.913 96.7443 283.901 96.7421C283.891 96.7404 283.806 96.7249 283.667 96.6776C283.53 96.631 283.294 96.5372 283.01 96.36L288.31 87.88C286.594 86.8076 284.586 86.72 283.42 86.72V96.72ZM283.01 96.36C282.268 95.8961 281.786 95.2447 281.532 94.6403C281.305 94.1018 281.3 93.7087 281.3 93.64H291.3C291.3 92.0673 290.825 89.452 288.31 87.88L283.01 96.36ZM281.3 93.64C281.3 93.5058 281.302 93.7574 281.105 94.7002C280.932 95.5318 280.658 96.6585 280.27 98.1063L289.93 100.694C290.342 99.1548 290.668 97.8282 290.895 96.7398C291.098 95.7626 291.3 94.6275 291.3 93.64H281.3ZM280.249 98.1873C279.703 100.373 279.257 102.32 278.917 104.019L288.723 105.981C289.023 104.48 289.43 102.694 289.951 100.613L280.249 98.1873ZM278.917 104.019C278.551 105.852 278.264 108.014 278.041 110.467L287.999 111.373C288.203 109.133 288.449 107.348 288.723 105.981L278.917 104.019ZM287.688 112.711C289.335 108.419 291.103 105.14 292.922 102.744L284.958 96.6964C282.404 100.06 280.225 104.247 278.352 109.129L287.688 112.711ZM292.922 102.744C294.893 100.148 296.566 98.6418 297.88 97.8668L292.8 89.2532C289.954 90.9315 287.36 93.5321 284.958 96.6964L292.922 102.744ZM297.832 97.8945C299.494 96.9389 300.575 96.72 301.18 96.72V86.72C298.265 86.72 295.452 87.7278 292.848 89.2255L297.832 97.8945ZM301.18 96.72C301.407 96.72 301.575 96.7343 301.692 96.751C301.808 96.7676 301.864 96.7853 301.874 96.7884C301.882 96.791 301.843 96.779 301.776 96.7387C301.707 96.6974 301.626 96.6367 301.544 96.5555C301.463 96.4743 301.403 96.3926 301.361 96.3237C301.321 96.2566 301.309 96.2183 301.312 96.2261C301.315 96.2355 301.332 96.2919 301.349 96.4084C301.366 96.5252 301.38 96.6931 301.38 96.92H311.38C311.38 94.4159 310.751 91.6195 308.616 89.4845C306.48 87.3494 303.684 86.72 301.18 86.72V96.72ZM301.38 96.92C301.38 96.8726 301.371 97.1483 301.25 97.9929C301.142 98.7489 300.974 99.7698 300.739 101.074L310.581 102.846C311.032 100.338 311.38 98.1592 311.38 96.92H301.38ZM300.757 100.979C300.538 102.076 300.364 103.013 300.243 103.77C300.139 104.421 300.02 105.248 300.02 105.96H310.02C310.02 106.107 310.009 106.141 310.028 105.978C310.043 105.843 310.071 105.638 310.117 105.35C310.209 104.773 310.356 103.977 310.563 102.941L300.757 100.979ZM300.02 105.96C300.02 107.338 300.239 109.269 301.451 110.966C302.885 112.974 305.039 113.76 307.02 113.76V103.76C307.268 103.76 307.724 103.804 308.259 104.054C308.821 104.316 309.275 104.715 309.589 105.154C310.135 105.918 310.02 106.449 310.02 105.96H300.02ZM307.02 113.76C309.04 113.76 310.812 112.987 312.187 112.146C313.603 111.281 314.982 110.11 316.316 108.776L309.244 101.704C308.232 102.717 307.477 103.305 306.973 103.614C306.428 103.946 306.493 103.76 307.02 103.76V113.76ZM316.316 108.776C316.352 108.74 316.256 108.846 316.009 108.965C315.741 109.094 315.37 109.2 314.94 109.2V99.2C312.491 99.2 310.57 100.378 309.244 101.704L316.316 108.776ZM314.94 109.2C314.487 109.2 313.885 109.086 313.288 108.727C312.706 108.379 312.377 107.947 312.221 107.679L320.859 102.641C319.665 100.593 317.556 99.2 314.94 99.2V109.2ZM312.496 108.101C312.3 107.831 312.219 107.6 312.189 107.488C312.162 107.387 312.18 107.395 312.18 107.56H322.18C322.18 105.898 321.835 103.94 320.584 102.219L312.496 108.101ZM312.18 107.56C312.18 108.103 312.106 108.417 312.053 108.57C312.007 108.705 311.969 108.741 311.959 108.752L319.201 115.648C321.378 113.362 322.18 110.448 322.18 107.56H312.18ZM311.983 108.727C310.861 109.889 309.506 110.926 307.882 111.824L312.718 120.576C315.147 119.234 317.312 117.604 319.177 115.673L311.983 108.727ZM307.922 111.801C306.678 112.474 305.389 112.8 303.98 112.8V122.8C307.051 122.8 309.975 122.059 312.678 120.599L307.922 111.801ZM303.98 112.8C301.969 112.8 301.237 112.297 300.971 112.041L294.029 119.239C296.75 121.863 300.337 122.8 303.98 122.8V112.8ZM301.036 112.104C300.72 111.789 300.34 111.217 300.34 109.8H290.34C290.34 113.289 291.4 116.611 293.964 119.176L301.036 112.104ZM300.34 109.8C300.34 109.336 300.386 108.864 300.483 108.381L290.677 106.419C290.454 107.536 290.34 108.664 290.34 109.8H300.34ZM300.555 107.898C300.659 106.864 300.74 105.901 300.74 105.24H290.74C290.74 105.237 290.738 105.363 290.714 105.691C290.691 105.993 290.656 106.394 290.605 106.902L300.555 107.898ZM300.74 105.24C300.74 104.396 300.623 102.877 299.64 101.447C298.425 99.68 296.545 98.96 294.86 98.96V108.96C294.4 108.96 293.756 108.875 293.064 108.539C292.348 108.192 291.787 107.677 291.4 107.113C291.035 106.581 290.879 106.093 290.811 105.797C290.743 105.5 290.74 105.297 290.74 105.24H300.74ZM294.86 98.96C292.661 98.96 291.046 100.13 290.222 100.83C289.27 101.639 288.407 102.663 287.632 103.718L295.688 109.642C295.954 109.281 296.177 109.004 296.359 108.798C296.545 108.588 296.658 108.484 296.698 108.45C296.748 108.408 296.645 108.506 296.395 108.628C296.142 108.75 295.607 108.96 294.86 108.96V98.96ZM287.616 103.739C286.049 105.894 284.601 108.594 283.237 111.72L292.403 115.72C293.599 112.979 294.711 110.986 295.704 109.621L287.616 103.739ZM283.237 111.72C281.839 114.926 280.709 118.29 279.845 121.806L289.555 124.194C290.291 121.204 291.241 118.381 292.403 115.72L283.237 111.72ZM279.832 121.861C279.576 122.952 279.327 123.739 279.108 124.278C278.874 124.854 278.757 124.941 278.871 124.812L286.369 131.428C288.053 129.52 288.961 126.736 289.568 124.139L279.832 121.861ZM278.857 124.827C278.976 124.692 279.105 124.583 279.228 124.502C279.349 124.423 279.442 124.384 279.485 124.369C279.556 124.344 279.437 124.4 279.02 124.4V134.4C281.441 134.4 284.318 133.772 286.383 131.413L278.857 124.827ZM311.666 125.8L315.528 122.624L311.666 125.8ZM311.666 104.28L316.1 106.591L316.107 106.578L316.113 106.565L311.666 104.28ZM319.506 95.08L322.387 99.1667L322.394 99.1621L322.4 99.1575L319.506 95.08ZM332.306 92.28L328.359 95.3497L328.551 95.5954L328.771 95.8155L332.306 92.28ZM333.346 94.68L328.471 95.7881L329.54 100.495L334.282 99.5917L333.346 94.68ZM339.586 105.16L344.489 106.141L344.494 106.117L344.498 106.093L339.586 105.16ZM338.306 119.88L334.359 122.95L334.46 123.079L334.569 123.202L338.306 119.88ZM343.586 118.68L346.908 122.417L346.946 122.383L346.983 122.349L343.586 118.68ZM349.426 112.28L345.63 109.026L345.61 109.049L345.591 109.072L349.426 112.28ZM353.186 112.12L348.867 114.639L348.943 114.769L349.026 114.894L353.186 112.12ZM352.306 119.72L348.522 116.452L348.465 116.519L348.409 116.587L352.306 119.72ZM345.346 126.6L348.374 130.579L345.346 126.6ZM333.346 127.64L330.104 131.446L330.179 131.51L330.257 131.572L333.346 127.64ZM330.066 122.68L334.772 120.991L331.27 111.236L325.815 120.048L330.066 122.68ZM325.826 119.24L321.863 116.191L325.826 119.24ZM328.146 113.72L333.04 114.744L333.044 114.725L333.048 114.706L328.146 113.72ZM331.106 99L336.008 99.9857L337.241 93.8525L330.987 94.0014L331.106 99ZM324.866 101.56L328.12 105.356L328.129 105.349L324.866 101.56ZM320.386 107.96L324.996 109.896L320.386 107.96ZM319.666 120.12L315.762 123.243L315.823 123.32L315.888 123.395L319.666 120.12ZM319.586 124.4C317.665 124.4 316.484 123.787 315.528 122.624L307.804 128.976C310.795 132.613 314.894 134.4 319.586 134.4V124.4ZM315.528 122.624C314.461 121.327 313.706 119.396 313.706 116.36H303.706C303.706 121.111 304.924 125.473 307.804 128.976L315.528 122.624ZM313.706 116.36C313.706 112.899 314.498 109.664 316.1 106.591L307.232 101.969C304.887 106.469 303.706 111.288 303.706 116.36H313.706ZM316.113 106.565C317.75 103.381 319.848 100.956 322.387 99.1667L316.625 90.9933C312.657 93.7905 309.53 97.4987 307.219 101.995L316.113 106.565ZM322.4 99.1575C324.951 97.3469 327.449 96.56 329.986 96.56V86.56C325.164 86.56 320.675 88.1197 316.613 91.0025L322.4 99.1575ZM329.986 96.56C330.275 96.56 330.22 96.5947 329.964 96.5153C329.693 96.4312 328.979 96.1456 328.359 95.3497L336.253 89.2103C334.344 86.7557 331.385 86.56 329.986 86.56V96.56ZM328.771 95.8155C328.568 95.6129 328.445 95.437 328.382 95.3365C328.318 95.235 328.294 95.1776 328.298 95.188C328.302 95.1968 328.324 95.2483 328.357 95.354C328.389 95.4586 328.428 95.6013 328.471 95.7881L338.222 93.5719C337.917 92.2315 337.326 90.2282 335.842 88.7445L328.771 95.8155ZM334.282 99.5917C335.071 99.4413 335.93 99.36 336.866 99.36V89.36C335.349 89.36 333.861 89.492 332.411 89.7683L334.282 99.5917ZM336.866 99.36C337.238 99.36 337.405 99.3948 337.423 99.399C337.439 99.4028 337.215 99.3533 336.9 99.1287C336.555 98.8819 336.226 98.5113 336.01 98.0494C335.807 97.614 335.786 97.2744 335.786 97.16H345.786C345.786 94.9125 344.907 92.5586 342.712 90.9913C340.828 89.6455 338.617 89.36 336.866 89.36V99.36ZM335.786 97.16C335.786 97.1592 335.786 97.2081 335.778 97.3214C335.771 97.4308 335.759 97.5769 335.739 97.7648C335.699 98.143 335.635 98.6366 335.542 99.2583C335.355 100.502 335.068 102.152 334.674 104.227L344.498 106.093C345.268 102.04 345.786 98.8537 345.786 97.16H335.786ZM334.683 104.179C333.463 110.282 332.746 115.001 332.746 117.96H342.746C342.746 116.119 343.256 112.305 344.489 106.141L334.683 104.179ZM332.746 117.96C332.746 119.52 333.115 121.35 334.359 122.95L342.253 116.81C342.751 117.45 342.746 118 342.746 117.96H332.746ZM334.569 123.202C335.941 124.745 337.832 125.6 339.906 125.6V115.6C340.226 115.6 340.641 115.664 341.078 115.86C341.515 116.057 341.835 116.324 342.043 116.558L334.569 123.202ZM339.906 125.6C342.851 125.6 345.275 123.869 346.908 122.417L340.264 114.943C339.741 115.408 339.412 115.615 339.273 115.687C339.126 115.764 339.368 115.6 339.906 115.6V125.6ZM346.983 122.349C348.663 120.793 350.774 118.462 353.262 115.488L345.591 109.072C343.172 111.965 341.389 113.9 340.189 115.011L346.983 122.349ZM353.223 115.534C353.211 115.547 353.065 115.715 352.748 115.879C352.407 116.056 351.999 116.16 351.586 116.16V106.16C348.998 106.16 346.983 107.448 345.63 109.026L353.223 115.534ZM351.586 116.16C351.133 116.16 350.531 116.046 349.934 115.687C349.352 115.339 349.024 114.907 348.867 114.639L357.505 109.601C356.311 107.553 354.202 106.16 351.586 106.16V116.16ZM349.026 114.894C348.863 114.649 348.814 114.468 348.807 114.438C348.801 114.414 348.826 114.507 348.826 114.76H358.826C358.826 113.08 358.518 111.103 357.346 109.346L349.026 114.894ZM348.826 114.76C348.826 115.441 348.744 115.879 348.666 116.135C348.592 116.375 348.525 116.448 348.522 116.452L356.09 122.988C358.14 120.615 358.826 117.642 358.826 114.76H348.826ZM348.409 116.587C346.444 119.032 344.41 121.03 342.319 122.621L348.374 130.579C351.189 128.437 353.795 125.848 356.203 122.853L348.409 116.587ZM342.319 122.621C340.439 124.051 339.104 124.4 338.226 124.4V134.4C341.936 134.4 345.347 132.882 348.374 130.579L342.319 122.621ZM338.226 124.4C337.678 124.4 337.122 124.248 336.435 123.708L330.257 131.572C332.557 133.379 335.255 134.4 338.226 134.4V124.4ZM336.589 123.834C335.917 123.262 335.274 122.389 334.772 120.991L325.36 124.369C326.352 127.131 327.895 129.565 330.104 131.446L336.589 123.834ZM325.815 120.048C323.691 123.48 321.622 124.4 319.586 124.4V134.4C325.977 134.4 330.895 130.84 334.318 125.312L325.815 120.048ZM322.466 126.32C325.839 126.32 328.257 124.281 329.789 122.289L321.863 116.191C321.584 116.555 321.464 116.605 321.554 116.549C321.608 116.515 321.72 116.455 321.889 116.404C322.062 116.352 322.259 116.32 322.466 116.32V126.32ZM329.789 122.289C331.443 120.139 332.456 117.536 333.04 114.744L323.252 112.696C322.877 114.491 322.343 115.567 321.863 116.191L329.789 122.289ZM333.048 114.706L336.008 99.9857L326.204 98.0143L323.244 112.734L333.048 114.706ZM330.987 94.0014C327.44 94.0859 324.279 95.4677 321.604 97.7712L328.129 105.349C329.294 104.346 330.292 104.021 331.225 103.999L330.987 94.0014ZM321.612 97.7637C319.059 99.9519 317.145 102.766 315.776 106.024L324.996 109.896C325.868 107.821 326.94 106.368 328.12 105.356L321.612 97.7637ZM315.776 106.024C314.39 109.324 313.706 112.811 313.706 116.44H323.706C323.706 114.096 324.142 111.93 324.996 109.896L315.776 106.024ZM313.706 116.44C313.706 118.581 314.093 121.157 315.762 123.243L323.571 116.997C323.78 117.258 323.808 117.429 323.784 117.338C323.759 117.24 323.706 116.962 323.706 116.44H313.706ZM315.888 123.395C317.641 125.417 320.019 126.32 322.466 126.32V116.32C322.452 116.32 322.611 116.319 322.856 116.424C323.114 116.535 323.318 116.699 323.445 116.845L315.888 123.395ZM349.244 125.8L353.107 122.624L349.244 125.8ZM349.244 104.28L353.678 106.591L353.685 106.578L353.692 106.565L349.244 104.28ZM357.084 95.08L359.965 99.1667L359.972 99.1621L359.978 99.1575L357.084 95.08ZM369.884 92.28L365.938 95.3497L366.129 95.5954L366.349 95.8155L369.884 92.28ZM370.924 94.68L366.049 95.7881L367.118 100.495L371.86 99.5917L370.924 94.68ZM377.164 105.16L382.067 106.141L382.072 106.117L382.077 106.093L377.164 105.16ZM375.884 119.88L371.938 122.95L372.038 123.079L372.147 123.202L375.884 119.88ZM381.164 118.68L384.486 122.417L384.524 122.383L384.561 122.349L381.164 118.68ZM387.004 112.28L383.208 109.026L383.188 109.049L383.169 109.072L387.004 112.28ZM390.764 112.12L386.445 114.639L386.521 114.769L386.604 114.894L390.764 112.12ZM389.884 119.72L386.1 116.452L386.043 116.519L385.987 116.587L389.884 119.72ZM382.924 126.6L385.952 130.579L382.924 126.6ZM370.924 127.64L367.682 131.446L367.757 131.51L367.835 131.572L370.924 127.64ZM367.644 122.68L372.35 120.991L368.849 111.236L363.393 120.048L367.644 122.68ZM363.404 119.24L359.441 116.191L363.404 119.24ZM365.724 113.72L370.618 114.744L370.622 114.725L370.626 114.706L365.724 113.72ZM368.684 99L373.586 99.9857L374.82 93.8525L368.565 94.0014L368.684 99ZM362.444 101.56L365.698 105.356L365.707 105.349L362.444 101.56ZM357.964 107.96L362.574 109.896L357.964 107.96ZM357.244 120.12L353.34 123.243L353.401 123.32L353.466 123.395L357.244 120.12ZM357.164 124.4C355.243 124.4 354.062 123.787 353.107 122.624L345.382 128.976C348.373 132.613 352.472 134.4 357.164 134.4V124.4ZM353.107 122.624C352.04 121.327 351.284 119.396 351.284 116.36H341.284C341.284 121.111 342.503 125.473 345.382 128.976L353.107 122.624ZM351.284 116.36C351.284 112.899 352.077 109.664 353.678 106.591L344.81 101.969C342.465 106.469 341.284 111.288 341.284 116.36H351.284ZM353.692 106.565C355.328 103.381 357.427 100.956 359.965 99.1667L354.204 90.9933C350.235 93.7905 347.108 97.4987 344.797 101.995L353.692 106.565ZM359.978 99.1575C362.529 97.3469 365.027 96.56 367.564 96.56V86.56C362.742 86.56 358.253 88.1197 354.191 91.0025L359.978 99.1575ZM367.564 96.56C367.853 96.56 367.798 96.5947 367.542 96.5153C367.271 96.4312 366.557 96.1456 365.938 95.3497L373.831 89.2103C371.922 86.7557 368.963 86.56 367.564 86.56V96.56ZM366.349 95.8155C366.146 95.6129 366.023 95.437 365.96 95.3365C365.896 95.235 365.872 95.1776 365.877 95.188C365.88 95.1968 365.902 95.2483 365.935 95.354C365.967 95.4586 366.006 95.6013 366.049 95.7881L375.8 93.5719C375.495 92.2315 374.904 90.2282 373.42 88.7445L366.349 95.8155ZM371.86 99.5917C372.649 99.4413 373.508 99.36 374.444 99.36V89.36C372.927 89.36 371.439 89.492 369.989 89.7683L371.86 99.5917ZM374.444 99.36C374.816 99.36 374.983 99.3948 375.001 99.399C375.017 99.4028 374.793 99.3533 374.478 99.1287C374.133 98.8819 373.804 98.5113 373.588 98.0494C373.385 97.614 373.364 97.2744 373.364 97.16H383.364C383.364 94.9125 382.485 92.5586 380.291 90.9913C378.406 89.6455 376.195 89.36 374.444 89.36V99.36ZM373.364 97.16C373.364 97.1592 373.364 97.2081 373.357 97.3214C373.349 97.4308 373.337 97.5769 373.317 97.7648C373.277 98.143 373.213 98.6366 373.12 99.2583C372.933 100.502 372.646 102.152 372.252 104.227L382.077 106.093C382.846 102.04 383.364 98.8537 383.364 97.16H373.364ZM372.261 104.179C371.041 110.282 370.324 115.001 370.324 117.96H380.324C380.324 116.119 380.834 112.305 382.067 106.141L372.261 104.179ZM370.324 117.96C370.324 119.52 370.693 121.35 371.938 122.95L379.831 116.81C380.329 117.45 380.324 118 380.324 117.96H370.324ZM372.147 123.202C373.519 124.745 375.411 125.6 377.484 125.6V115.6C377.804 115.6 378.219 115.664 378.656 115.86C379.093 116.057 379.413 116.324 379.621 116.558L372.147 123.202ZM377.484 125.6C380.429 125.6 382.853 123.869 384.486 122.417L377.843 114.943C377.319 115.408 376.991 115.615 376.852 115.687C376.704 115.764 376.946 115.6 377.484 115.6V125.6ZM384.561 122.349C386.242 120.793 388.352 118.462 390.84 115.488L383.169 109.072C380.75 111.965 378.967 113.9 377.767 115.011L384.561 122.349ZM390.801 115.534C390.79 115.547 390.643 115.715 390.326 115.879C389.985 116.056 389.577 116.16 389.164 116.16V106.16C386.576 106.16 384.561 107.448 383.208 109.026L390.801 115.534ZM389.164 116.16C388.712 116.16 388.109 116.046 387.512 115.687C386.931 115.339 386.602 114.907 386.445 114.639L395.083 109.601C393.889 107.553 391.78 106.16 389.164 106.16V116.16ZM386.604 114.894C386.441 114.649 386.392 114.468 386.385 114.438C386.379 114.414 386.404 114.507 386.404 114.76H396.404C396.404 113.08 396.096 111.103 394.925 109.346L386.604 114.894ZM386.404 114.76C386.404 115.441 386.322 115.879 386.244 116.135C386.17 116.375 386.103 116.448 386.1 116.452L393.668 122.988C395.718 120.615 396.404 117.642 396.404 114.76H386.404ZM385.987 116.587C384.022 119.032 381.988 121.03 379.897 122.621L385.952 130.579C388.768 128.437 391.373 125.848 393.781 122.853L385.987 116.587ZM379.897 122.621C378.017 124.051 376.682 124.4 375.804 124.4V134.4C379.514 134.4 382.925 132.882 385.952 130.579L379.897 122.621ZM375.804 124.4C375.256 124.4 374.7 124.248 374.013 123.708L367.835 131.572C370.135 133.379 372.833 134.4 375.804 134.4V124.4ZM374.167 123.834C373.495 123.262 372.852 122.389 372.35 120.991L362.938 124.369C363.93 127.131 365.473 129.565 367.682 131.446L374.167 123.834ZM363.393 120.048C361.269 123.48 359.2 124.4 357.164 124.4V134.4C363.555 134.4 368.473 130.84 371.896 125.312L363.393 120.048ZM360.044 126.32C363.417 126.32 365.835 124.281 367.367 122.289L359.441 116.191C359.162 116.555 359.042 116.605 359.133 116.549C359.186 116.515 359.298 116.455 359.467 116.404C359.64 116.352 359.837 116.32 360.044 116.32V126.32ZM367.367 122.289C369.021 120.139 370.034 117.536 370.618 114.744L360.83 112.696C360.455 114.491 359.921 115.567 359.441 116.191L367.367 122.289ZM370.626 114.706L373.586 99.9857L363.783 98.0143L360.823 112.734L370.626 114.706ZM368.565 94.0014C365.018 94.0859 361.857 95.4677 359.182 97.7712L365.707 105.349C366.872 104.346 367.87 104.021 368.803 103.999L368.565 94.0014ZM359.19 97.7637C356.638 99.9519 354.723 102.766 353.354 106.024L362.574 109.896C363.446 107.821 364.518 106.368 365.698 105.356L359.19 97.7637ZM353.354 106.024C351.969 109.324 351.284 112.811 351.284 116.44H361.284C361.284 114.096 361.72 111.93 362.574 109.896L353.354 106.024ZM351.284 116.44C351.284 118.581 351.671 121.157 353.34 123.243L361.149 116.997C361.358 117.258 361.386 117.429 361.362 117.338C361.337 117.24 361.284 116.962 361.284 116.44H351.284ZM353.466 123.395C355.219 125.417 357.597 126.32 360.044 126.32V116.32C360.03 116.32 360.189 116.319 360.434 116.424C360.692 116.535 360.896 116.699 361.023 116.845L353.466 123.395ZM402.841 115.56L403.822 110.657L396.393 109.171L397.948 116.586L402.841 115.56ZM404.521 126.6L399.549 127.123L399.553 127.16L399.557 127.196L404.521 126.6ZM402.441 149.72L398.18 147.104L402.441 149.72ZM386.841 146.12L382.044 147.531L382.051 147.552L382.057 147.574L386.841 146.12ZM387.721 90.36L382.83 89.3225L382.828 89.3318L382.826 89.3412L387.721 90.36ZM396.841 64.2L392.482 61.7519L392.475 61.7632L396.841 64.2ZM415.481 57.16L411.23 59.7918L411.252 59.828L411.275 59.8638L415.481 57.16ZM395.161 107.16L391.651 103.599L390.37 104.862L390.187 106.652L395.161 107.16ZM394.921 137.8L399.911 137.48L399.911 137.477L394.921 137.8ZM398.281 126.12L393.328 126.799L393.332 126.832L393.337 126.865L398.281 126.12ZM396.041 113.8L391.056 114.183L391.083 114.538L391.16 114.885L396.041 113.8ZM396.681 111.16L392.209 108.924L392.164 109.015L392.122 109.108L396.681 111.16ZM398.601 108.36L402.257 111.772L398.601 108.36ZM404.441 107.32L404.993 102.351L404.896 102.34L404.797 102.333L404.441 107.32ZM413.241 106.84L412.621 101.879L412.578 101.884L412.534 101.89L413.241 106.84ZM404.361 66.6L399.789 64.5763L399.775 64.6078L399.762 64.6395L404.361 66.6ZM400.201 79.56L405.04 80.8182L405.043 80.8065L400.201 79.56ZM396.601 96.52L391.672 95.6837L388.725 113.052L400.356 99.8213L396.601 96.52ZM406.441 81.4L411.02 83.409L411.024 83.4005L411.027 83.3919L406.441 81.4ZM409.961 66.6L414.961 66.6581L414.961 66.6291V66.6H409.961ZM416.041 111.6C415.787 111.6 415.321 111.55 414.785 111.282C414.229 111.004 413.82 110.601 413.561 110.214C413.325 109.859 413.265 109.597 413.26 109.575C413.255 109.551 413.281 109.662 413.281 109.96H423.281C423.281 108.442 423.057 106.43 421.882 104.666C420.467 102.545 418.244 101.6 416.041 101.6V111.6ZM413.281 109.96C413.281 110.352 413.208 110.452 413.231 110.407C413.262 110.347 413.279 110.378 413.115 110.483C412.644 110.783 411.298 111.28 408.361 111.28V121.28C412.038 121.28 415.652 120.724 418.488 118.917C421.706 116.866 423.281 113.623 423.281 109.96H413.281ZM408.361 111.28C407.586 111.28 406.134 111.12 403.822 110.657L401.861 120.463C404.348 120.96 406.577 121.28 408.361 121.28V111.28ZM397.948 116.586C398.6 119.697 399.136 123.206 399.549 127.123L409.494 126.077C409.053 121.888 408.469 118.036 407.735 114.534L397.948 116.586ZM399.557 127.196C400.024 131.092 400.241 134.182 400.241 136.52H410.241C410.241 133.632 409.978 130.108 409.486 126.004L399.557 127.196ZM400.241 136.52C400.241 141.869 399.352 145.196 398.18 147.104L406.702 152.336C409.264 148.164 410.241 142.691 410.241 136.52H400.241ZM398.18 147.104C397.038 148.965 396.056 149.28 395.081 149.28V159.28C400.186 159.28 404.111 156.555 406.702 152.336L398.18 147.104ZM395.081 149.28C394.489 149.28 394.104 149.127 393.659 148.687C393.088 148.122 392.316 146.939 391.625 144.666L382.057 147.574C383.02 150.741 384.447 153.638 386.623 155.793C388.926 158.073 391.834 159.28 395.081 159.28V149.28ZM391.638 144.709C390.246 139.977 389.441 132.348 389.441 121.48H379.441C379.441 132.586 380.236 141.383 382.044 147.531L391.638 144.709ZM389.441 121.48C389.441 111.598 390.496 101.566 392.616 91.3788L382.826 89.3412C380.573 100.167 379.441 110.882 379.441 121.48H389.441ZM392.612 91.3975C394.784 81.1599 397.683 72.9513 401.207 66.6368L392.475 61.7632C388.32 69.2087 385.138 78.4401 382.83 89.3225L392.612 91.3975ZM401.201 66.6481C404.86 60.1321 407.831 58.8 409.641 58.8V48.8C402.172 48.8 396.609 54.4012 392.482 61.7519L401.201 66.6481ZM409.641 58.8C410.312 58.8 410.698 58.9331 411.23 59.7918L419.733 54.5282C417.491 50.9069 413.984 48.8 409.641 48.8V58.8ZM411.275 59.8638C412.022 61.0246 412.641 62.9861 412.641 66.2H422.641C422.641 61.8406 421.821 57.7754 419.687 54.4562L411.275 59.8638ZM412.641 66.2C412.641 76.729 406.296 89.1629 391.651 103.599L398.671 110.721C414 95.6105 422.641 80.7377 422.641 66.2H412.641ZM390.187 106.652C389.642 111.996 389.361 116.759 389.361 120.92H399.361C399.361 117.188 399.614 112.777 400.135 107.668L390.187 106.652ZM389.361 120.92C389.361 126.526 389.552 132.261 389.932 138.123L399.911 137.477C399.544 131.819 399.361 126.3 399.361 120.92H389.361ZM389.932 138.12C390.122 141.085 390.386 143.556 390.769 145.372C390.951 146.236 391.226 147.283 391.702 148.227C391.968 148.753 393.412 151.52 396.761 151.52V141.52C398.207 141.52 399.257 142.172 399.83 142.697C400.344 143.168 400.575 143.613 400.63 143.723C400.74 143.941 400.678 143.898 400.554 143.308C400.323 142.217 400.094 140.328 399.911 137.48L389.932 138.12ZM396.761 151.52C398.833 151.52 400.497 150.538 401.592 149.272C402.56 148.154 403.068 146.858 403.365 145.826C403.965 143.746 404.161 141.095 404.161 138.2H394.161C394.161 140.852 393.957 142.361 393.757 143.054C393.655 143.409 393.663 143.153 394.03 142.728C394.241 142.485 394.59 142.164 395.105 141.909C395.637 141.646 396.211 141.52 396.761 141.52V151.52ZM404.161 138.2C404.161 133.805 403.851 129.528 403.225 125.375L393.337 126.865C393.885 130.498 394.161 134.275 394.161 138.2H404.161ZM403.235 125.441C402.681 121.396 401.908 117.153 400.922 112.715L391.16 114.885C392.094 119.087 392.815 123.057 393.328 126.799L403.235 125.441ZM401.027 113.417C401.039 113.576 401.032 113.691 401.026 113.751C401.02 113.81 401.013 113.828 401.021 113.798C401.028 113.769 401.045 113.704 401.081 113.603C401.118 113.501 401.169 113.372 401.241 113.212L392.122 109.108C391.504 110.48 390.909 112.268 391.056 114.183L401.027 113.417ZM401.153 113.396C401.491 112.72 401.865 112.191 402.257 111.772L394.946 104.948C393.844 106.129 392.938 107.467 392.209 108.924L401.153 113.396ZM402.257 111.772C402.43 111.586 402.426 111.632 402.234 111.747C402.036 111.866 401.463 112.16 400.601 112.16V102.16C397.825 102.16 395.896 103.931 394.946 104.948L402.257 111.772ZM400.601 112.16C401.512 112.16 402.667 112.206 404.085 112.307L404.797 102.333C403.229 102.221 401.823 102.16 400.601 102.16V112.16ZM403.889 112.289C404.6 112.368 405.352 112.4 406.121 112.4V102.4C405.61 102.4 405.242 102.378 404.993 102.351L403.889 112.289ZM406.121 112.4C408.539 112.4 411.153 112.189 413.948 111.79L412.534 101.89C410.102 102.238 407.97 102.4 406.121 102.4V112.4ZM413.861 111.801C414.263 111.751 414.693 111.701 415.153 111.649L414.049 101.711C413.549 101.766 413.073 101.822 412.621 101.879L413.861 111.801ZM415.153 111.649C415.451 111.616 415.747 111.6 416.041 111.6V101.6C415.376 101.6 414.711 101.637 414.049 101.711L415.153 111.649ZM407.961 56.72C406.272 56.72 404.98 57.4344 404.188 58.0309C403.392 58.6309 402.778 59.3483 402.318 59.9718C401.397 61.2197 400.564 62.8267 399.789 64.5763L408.933 68.6237C409.599 67.12 410.086 66.2869 410.365 65.9082C410.505 65.7184 410.461 65.8258 410.204 66.0191C409.952 66.2089 409.171 66.72 407.961 66.72V56.72ZM399.762 64.6395C398.237 68.2164 396.777 72.8042 395.359 78.3135L405.043 80.8065C406.398 75.5425 407.712 71.4903 408.961 68.5605L399.762 64.6395ZM395.362 78.3018C393.936 83.7873 392.707 89.5823 391.672 95.6837L401.531 97.3563C402.522 91.511 403.693 85.9993 405.04 80.8182L395.362 78.3018ZM400.356 99.8213C404.918 94.6323 408.495 89.1637 411.02 83.409L401.863 79.391C399.801 84.0896 396.818 88.7011 392.846 93.2187L400.356 99.8213ZM411.027 83.3919C413.521 77.6516 414.898 72.0568 414.961 66.6581L404.962 66.5419C404.918 70.3165 403.949 74.5884 401.855 79.4081L411.027 83.3919ZM414.961 66.6C414.961 64.7811 414.796 62.7729 414.088 61.0439C413.714 60.1323 413.083 59.0339 411.991 58.146C410.817 57.191 409.401 56.72 407.961 56.72V66.72C407.188 66.72 406.356 66.4524 405.681 65.904C405.09 65.4228 404.875 64.9344 404.835 64.8361C404.792 64.7307 404.835 64.7972 404.882 65.1418C404.927 65.4695 404.961 65.9459 404.961 66.6H414.961Z" fill="white"/>
</g>
</g>
</g>
<defs>
<filter id="filter0_d_93_5567" x="13.1113" y="1.02045" width="418.408" height="190.041" filterUnits="userSpaceOnUse" color-interpolation-filters="sRGB">
<feFlood flood-opacity="0" result="BackgroundImageFix"/>
<feColorMatrix in="SourceAlpha" type="matrix" values="0 0 0 0 0 0 0 0 0 0 0 0 0 0 0 0 0 0 127 0" result="hardAlpha"/>
<feOffset dy="4"/>
<feGaussianBlur stdDeviation="1.5"/>
<feComposite in2="hardAlpha" operator="out"/>
<feColorMatrix type="matrix" values="0 0 0 0 0 0 0 0 0 0 0 0 0 0 0 0 0 0 0.57 0"/>
<feBlend mode="normal" in2="BackgroundImageFix" result="effect1_dropShadow_93_5567"/>
<feBlend mode="normal" in="SourceGraphic" in2="effect1_dropShadow_93_5567" result="shape"/>
</filter>
<filter id="filter1_d_93_5567" x="12.1113" y="53.8" width="410.17" height="119.6" filterUnits="userSpaceOnUse" color-interpolation-filters="sRGB">
<feFlood flood-opacity="0" result="BackgroundImageFix"/>
<feColorMatrix in="SourceAlpha" type="matrix" values="0 0 0 0 0 0 0 0 0 0 0 0 0 0 0 0 0 0 127 0" result="hardAlpha"/>
<feOffset dy="4"/>
<feGaussianBlur stdDeviation="2"/>
<feComposite in2="hardAlpha" operator="out"/>
<feColorMatrix type="matrix" values="0 0 0 0 0 0 0 0 0 0 0 0 0 0 0 0 0 0 0.25 0"/>
<feBlend mode="normal" in2="BackgroundImageFix" result="effect1_dropShadow_93_5567"/>
<feBlend mode="normal" in="SourceGraphic" in2="effect1_dropShadow_93_5567" result="shape"/>
</filter>
<clipPath id="clip0_93_5567">
<rect width="432" height="191" fill="white"/>
</clipPath>
</defs>
</svg>
